<svg width="2413" height="2031" viewBox="0 0 2413 2031" fill="none" xmlns="http://www.w3.org/2000/svg">
    <path fill-rule="evenodd" clip-rule="evenodd" d="M1099.6 10.7154C1010.6 34.0375 937.468 86.3765 887.502 162.467C865.565 195.879 865.543 195.891 838.916 201.326C803.586 208.524 769.24 224.67 747.563 244.241L729.898 260.196H686.115C592.615 260.196 521.854 299.179 487.248 369.744C418.386 510.174 644.095 593.914 793.946 483.529L821.601 463.157L852.84 480.851C887.898 500.716 893.232 501.563 918.955 491.27C936.439 484.275 937.942 484.366 956.692 493.473C994.61 511.891 1013.68 505.586 1069 456.343C1089.48 438.117 1113.76 417.97 1122.99 411.575L1139.76 399.959L1169.35 414.953C1196.58 428.75 1202.18 429.959 1239.76 430.038C1262.2 430.094 1280.58 430.512 1280.59 430.987C1280.6 431.462 1269.65 442.207 1256.26 454.863C1229.92 479.767 1208.07 519.021 1203.33 549.914C1188.97 643.688 1339.04 705.428 1461.32 656.049L1486.91 645.71L1507.64 669.236C1538.31 703.993 1549.02 691.609 1525.87 648.151L1515.09 627.891L1535.47 612.874C1546.67 604.614 1558.46 595.891 1561.66 593.496C1565.69 590.467 1571.21 591.563 1579.66 597.066C1631.74 630.976 1681.55 635.857 1728.06 611.609L1758.31 595.835L1783.24 614.987C1859.88 673.869 1956.89 686.784 2041.49 649.371C2187.88 584.626 2081.36 385.665 1894.87 375.496L1844.7 372.75L1835.26 348.004C1783.35 211.744 1653.45 128.252 1510.18 139.055L1472.65 141.879L1451.88 117.699C1369.76 22.1053 1224.47 -22.0191 1099.6 10.7154ZM1111.67 475.767C1071.44 517.484 1061.46 558.49 1079.41 608.343C1083.23 618.965 1086.36 628.4 1086.36 629.315C1086.36 632.863 1052.33 630.66 1035.59 626.027C1011.79 619.439 979.657 586.558 969.26 558.14C964.818 545.993 961.032 535.801 960.862 535.473C955.098 524.919 931.839 530.886 931.839 542.919C931.839 565.021 890.237 555.179 835.819 520.196C816.38 507.699 817.781 513.699 841.3 543.654C857.485 564.275 867.396 571.857 895.38 585.078C920.503 596.942 933.173 606.049 942.926 619.224C962.467 645.665 988.755 663.79 1029.92 679.213C1105.42 707.507 1132.74 725.586 1156.89 763.225C1187.03 810.185 1180.25 844.66 1130.55 897.157C1070.98 960.084 1049.2 1008.5 1051.81 1072.24C1053.22 1106.65 1053.09 1107.18 1044.42 1100.73C1004.92 1071.33 979.149 1070.4 930.879 1096.61C856.027 1137.26 832.756 1147.17 801.608 1151.62C678.351 1169.24 579.641 1122.37 553.952 1034.03C549.092 1017.3 544.605 1010.23 537.575 1008.22C510.699 1000.51 512.44 999.282 512.44 1025.97V1050.82L491.464 1047.99C459.479 1043.68 432.999 1033.84 408.881 1017.3C387.713 1002.81 386.594 1002.55 374.953 1009.42C350.315 1023.97 410.158 1073.46 474.918 1092.08C498.787 1098.95 505.749 1104.06 545.554 1143.9C639.936 1238.38 745.144 1255.3 909.925 1202.5C992.982 1175.89 1002.7 1177.03 1072.02 1221.41C1125.19 1255.45 1156.1 1269.43 1221.91 1289.16C1343.99 1325.76 1392.21 1369.62 1385.62 1438.12C1379.41 1502.75 1337.56 1538.5 1203.89 1593.35C1108.77 1632.38 1068.13 1666.28 1005.9 1758.45C906.32 1905.95 855.202 1923.77 397.659 1970.54C310.013 1979.5 89.3673 2007.1 67.6904 2011.81L51.0993 2015.43L68.7528 2018.45C125.816 2028.2 305.888 2030.07 1185.69 2030.05C2166.2 2030.03 2380.47 2026.64 2324.7 2012.06C2306.2 2007.23 2017.29 1972.2 1819.21 1950.76C1491.38 1915.3 1415.86 1893.11 1380.34 1821.85C1354.4 1769.8 1374.37 1727.54 1452.33 1669.45C1669.44 1507.7 1617.51 1257.68 1353.45 1193.43C1111.88 1134.64 1126.41 954.558 1375.53 920.05C1489.45 904.264 1547.89 869.925 1617.77 777.688C1649.43 735.914 1660.03 727.948 1712.31 706.682C1729.48 699.699 1753.87 686.388 1766.51 677.1L1789.51 660.219L1777.28 650.479L1765.06 640.727L1744.68 653.654C1720.88 668.75 1662.01 688.343 1640.45 688.343C1626.37 688.343 1625.41 687.371 1624.12 671.903C1622.87 656.852 1621.07 654.84 1602.77 648.072L1582.78 640.682L1584.47 670.637C1589.94 767.36 1508.68 827.27 1351.25 842.581C1323.32 845.304 1293.31 848.581 1284.54 849.869L1268.59 852.219L1266.37 821.214C1263.04 774.694 1248.54 748.965 1200.83 704.987C1105.83 617.383 1094.29 534.027 1170.42 485.19C1182.65 477.349 1192.08 470.377 1191.37 469.699C1190.67 469.021 1178.84 463.496 1165.06 457.416L1140.02 446.366L1111.67 475.767ZM1016.55 538.513C1010.92 540.773 1007.56 544.614 1009.08 547.066C1013.1 553.563 1017.88 552.58 1029.58 542.829C1040.97 533.349 1034.66 531.247 1016.55 538.513ZM414.487 602.14C352.609 619.179 298.428 661.767 260.658 723.055C254.464 733.1 251.503 733.948 225.34 733.066C60.9658 727.564 -64.9817 899.27 36.3166 990.773C118.198 1064.73 246.768 1055.28 365.731 966.57L380.163 955.812L412.769 972.151C452.902 992.253 455.885 992.276 488.344 972.739L514.497 956.988L552.098 975.609C606.889 1002.76 640.501 1004.56 686.285 982.829L719.196 967.202L756.864 986.095C881.015 1048.4 1037.04 993.349 1027.71 890.536C1016.04 761.846 840.374 669.304 706.424 721.281C701.576 723.168 695.36 717.507 685.38 702.117C632.307 620.208 511.185 575.507 414.487 602.14ZM1946.77 765.36C1903.65 777.247 1862.22 807.18 1837.71 844.129C1831.57 853.406 1824.1 859.914 1820.98 858.716C1733.5 825.157 1612.05 876.513 1571.51 964.208C1526 1062.67 1650.61 1131.33 1769.61 1073.35L1792.86 1062.03L1812.04 1071.6C1843.65 1087.38 1873.44 1081.26 1920.94 1049.2C1931.9 1041.81 1932.71 1041.98 1954.68 1056.78C1988.13 1079.3 1994 1079.68 2028.47 1061.38L2058.45 1045.48L2078.18 1062.23C2184.57 1152.49 2340.14 1159.85 2399.23 1077.42C2451.89 1003.95 2344.53 878.4 2228.85 878.185L2203.62 878.14L2186.03 852.23C2134.04 775.688 2037.04 740.468 1946.77 765.36ZM697.858 1028.45C677.266 1039.59 660.867 1045.63 618.835 1057.58C606.042 1061.21 632.363 1082.14 646.231 1079.36C684.081 1071.79 750.648 1028.19 737.595 1019.51C728.033 1013.16 724.79 1013.88 697.858 1028.45ZM1920 1091.11C1916.24 1094.14 1907.16 1105.56 1899.83 1116.49C1863.34 1170.93 1837.26 1184.91 1764.03 1189.28C1684.26 1194.04 1627.44 1208.16 1581.78 1234.56L1562.88 1245.49L1582.02 1265.95C1592.54 1277.21 1606.86 1296.91 1613.84 1309.73L1626.52 1333.04L1637.16 1314.14C1663.92 1266.68 1718.42 1240.07 1788.91 1240.07C1835.84 1240.07 1848.11 1235.56 1881.6 1206C1918.95 1173.03 1932.83 1166.04 1989.88 1151.44C2023.41 1142.85 2049.76 1133.18 2063.37 1124.45L2084.58 1110.84L2072.51 1098.25C2061.84 1087.12 2059.61 1086.4 2053.39 1092.04C2039.35 1104.73 1994.73 1121.84 1969.72 1124.11C1942.14 1126.6 1938.64 1123.39 1938.47 1095.52C1938.4 1084.52 1930.51 1082.64 1920 1091.11ZM1783.7 1098.94C1769.49 1107.73 1818.26 1136.76 1838.65 1131.64C1854.8 1127.6 1852.89 1122 1833.56 1116.71C1824.46 1114.22 1810.84 1108.39 1803.29 1103.74C1794.93 1098.6 1787.29 1096.73 1783.7 1098.94Z" fill="black"/>
</svg>
