<svg width="514" height="363" viewBox="0 0 514 363" fill="none" xmlns="http://www.w3.org/2000/svg">
    <path d="M27.7361 42.736C26.0201 42.736 24.1721 42.626 22.1921 42.406C20.2561 42.186 18.0121 42.054 15.4601 42.01C15.1961 41.966 14.8001 41.944 14.2721 41.944C13.7881 41.944 13.1941 41.944 12.4901 41.944C11.5661 41.988 10.0701 42.032 8.00211 42.076C5.97811 42.12 3.93211 42.142 1.86411 42.142H0.610107L1.33611 41.02C1.33611 41.02 1.44611 41.02 1.66611 41.02C1.93011 41.02 2.10611 41.042 2.19411 41.086C3.07411 41.086 3.86611 41.108 4.57011 41.152C5.27411 41.152 5.91211 41.152 6.48411 41.152C7.71611 41.152 8.68411 41.086 9.38811 40.954C10.0921 40.778 10.6641 40.448 11.1041 39.964C11.5441 39.436 11.9181 38.666 12.2261 37.654C12.5781 36.642 13.0181 35.3 13.5461 33.628C14.2501 31.296 14.8881 28.92 15.4601 26.5C16.0761 24.036 16.6041 21.682 17.0441 19.438C17.4841 17.15 17.8361 15.126 18.1001 13.366C18.3641 11.562 18.5401 10.198 18.6281 9.27397C18.6721 8.87797 18.7161 8.41597 18.7601 7.88797C18.8481 7.35997 18.8921 6.80997 18.8921 6.23797C18.8921 5.35797 18.7601 4.56597 18.4961 3.86197C18.2321 3.15797 17.6821 2.73997 16.8461 2.60797C16.4941 2.51997 15.9001 2.47597 15.0641 2.47597C14.2721 2.43197 13.4361 2.40997 12.5561 2.40997C11.7201 2.36597 10.9941 2.34397 10.3781 2.34397H8.86011L9.52011 1.28797L10.7081 1.22197C11.1921 1.17797 11.6761 1.15597 12.1601 1.15597C12.6441 1.15597 13.1061 1.15597 13.5461 1.15597C15.4381 1.15597 17.2421 1.22197 18.9581 1.35397C20.7181 1.44197 22.4121 1.48597 24.0401 1.48597H25.4261C27.3621 1.48597 29.3201 1.35397 31.3001 1.08997C33.3241 0.825969 35.2821 0.69397 37.1741 0.69397C39.4621 0.69397 41.6401 1.08997 43.7081 1.88197C45.8201 2.62997 47.7341 4.16997 49.4501 6.50197C50.8581 8.39397 51.8481 10.264 52.4201 12.112C52.9921 13.96 53.2781 15.786 53.2781 17.59C53.2781 20.626 52.5961 23.42 51.2321 25.972C49.8681 28.48 48.3501 30.504 46.6781 32.044L41.6621 36.664C38.9781 39.128 36.5581 40.756 34.4021 41.548C32.2901 42.34 30.0681 42.736 27.7361 42.736ZM28.0001 40.03C29.3201 40.03 30.6401 39.854 31.9601 39.502C33.3241 39.106 34.5781 38.644 35.7221 38.116C36.8661 37.588 37.7461 37.06 38.3621 36.532C41.0461 34.376 43.0261 31.846 44.3021 28.942C45.6221 26.038 46.2821 23.09 46.2821 20.098C46.2821 16.93 45.5341 13.916 44.0381 11.056C42.5861 8.19597 40.4081 5.90797 37.5041 4.19197C36.6681 3.70797 35.8101 3.33397 34.9301 3.06997C34.0501 2.76197 33.1701 2.60797 32.2901 2.60797C31.0581 2.60797 29.9141 2.93797 28.8581 3.59797C27.8461 4.21397 27.0101 5.26997 26.3501 6.76597C25.6461 8.30597 25.0081 10.154 24.4361 12.31C23.9081 14.422 23.4241 16.578 22.9841 18.778C22.5441 20.934 22.1701 22.914 21.8621 24.718C21.5981 26.478 21.4001 27.82 21.2681 28.744C21.0041 30.108 20.8721 31.34 20.8721 32.44C20.8721 35.3 21.5761 37.28 22.9841 38.38C24.4361 39.48 26.1081 40.03 28.0001 40.03Z" fill="white"/>
    <path d="M95.0376 23.53L94.2456 23.002C94.3336 22.562 94.3996 22.166 94.4436 21.814C94.5316 21.418 94.5755 21.044 94.5755 20.692C94.5755 19.284 94.1575 18.206 93.3215 17.458C92.5295 16.71 91.4735 16.336 90.1535 16.336C88.9215 16.336 87.4915 16.71 85.8635 17.458L85.5335 16.93C87.6015 15.742 89.5156 14.818 91.2756 14.158C93.0796 13.498 94.7955 13.168 96.4235 13.168H96.6875C97.1715 13.168 97.4136 13.432 97.4136 13.96C97.4136 14.532 97.3036 15.214 97.0835 16.006C96.8635 16.754 96.6216 17.546 96.3576 18.382C96.1816 18.822 96.0275 19.262 95.8955 19.702C95.7635 20.098 95.6535 20.516 95.5655 20.956C95.2575 22.056 95.0816 22.914 95.0376 23.53ZM80.6496 43.066C79.3296 43.066 78.0975 42.868 76.9535 42.472C75.8095 42.076 74.9956 41.372 74.5116 40.36C74.2036 39.744 73.9835 39.04 73.8515 38.248C73.7635 37.412 73.7196 36.554 73.7196 35.674C73.7196 34.09 73.8735 32.418 74.1815 30.658C74.5335 28.854 74.9295 27.204 75.3695 25.708C76.2935 22.716 77.3275 20.428 78.4715 18.844C79.6156 17.26 81.1775 16.116 83.1575 15.412C83.4655 15.324 83.9496 15.148 84.6096 14.884C85.3136 14.62 86.0175 14.356 86.7215 14.092C87.4695 13.784 88.0635 13.564 88.5035 13.432L88.5695 14.224L84.6755 16.336C84.1035 16.644 83.5095 17.348 82.8935 18.448C82.2775 19.504 81.7056 20.78 81.1776 22.276C80.6496 23.772 80.1655 25.312 79.7255 26.896L83.8835 24.916C84.4115 24.784 84.9835 24.718 85.5995 24.718C86.1715 24.718 86.7215 24.762 87.2495 24.85C87.8215 24.938 88.3935 25.026 88.9655 25.114C89.9775 25.246 91.0116 25.312 92.0676 25.312C92.5076 25.312 92.9476 25.29 93.3876 25.246C93.8716 25.202 94.3335 25.136 94.7735 25.048L95.0376 25.51L88.8996 28.546C88.6356 28.59 88.3716 28.634 88.1076 28.678C87.8876 28.678 87.6455 28.678 87.3815 28.678C86.3255 28.678 85.2475 28.546 84.1475 28.282C83.0915 28.018 82.0355 27.886 80.9795 27.886C80.7155 27.886 80.4515 27.886 80.1875 27.886C79.9675 27.886 79.7255 27.93 79.4615 28.018C79.2415 29.074 79.0435 30.108 78.8675 31.12C78.7355 32.088 78.6695 33.012 78.6695 33.892C78.6695 35.256 78.8675 36.378 79.2635 37.258C79.8355 38.49 80.6715 39.458 81.7715 40.162C82.8715 40.822 84.0816 41.152 85.4016 41.152C87.3376 41.152 89.2515 40.36 91.1435 38.776C93.0355 37.192 94.3996 34.64 95.2355 31.12L96.1595 31.78C95.7635 32.88 95.3455 34.09 94.9055 35.41C94.4655 36.686 94.0695 38.248 93.7175 40.096C93.2775 40.8 92.7276 41.262 92.0676 41.482C91.4076 41.702 90.6595 41.812 89.8235 41.812C89.5155 41.812 89.1635 41.812 88.7675 41.812C88.3715 41.768 87.9756 41.746 87.5796 41.746C86.9636 42.054 85.9955 42.362 84.6755 42.67C83.3995 42.934 82.0576 43.066 80.6496 43.066Z" fill="white"/>
    <path d="M125.505 42.736C124.669 42.736 123.789 42.714 122.865 42.67C121.985 42.582 121.083 42.494 120.159 42.406L119.961 42.142C119.873 41.57 119.983 40.844 120.291 39.964C120.555 39.04 120.863 38.094 121.215 37.126C121.347 36.774 121.545 36.246 121.809 35.542C122.073 34.794 122.337 34.068 122.601 33.364C122.865 32.616 123.041 32.11 123.129 31.846C123.261 31.406 123.371 31.01 123.459 30.658C123.547 30.306 123.591 29.91 123.591 29.47L124.317 30.262C124.229 30.658 124.163 31.076 124.119 31.516C124.075 31.912 124.053 32.308 124.053 32.704C124.053 34.596 124.581 36.246 125.637 37.654C126.737 39.018 128.299 39.7 130.323 39.7C131.863 39.7 133.249 39.37 134.481 38.71C135.757 38.006 136.769 37.126 137.517 36.07C138.265 34.97 138.639 33.87 138.639 32.77C138.639 32.242 138.529 31.692 138.309 31.12C137.913 30.108 136.967 29.404 135.471 29.008C134.019 28.612 132.523 28.37 130.983 28.282C128.299 28.062 126.275 27.446 124.911 26.434C123.591 25.422 122.931 24.234 122.931 22.87C122.931 21.638 123.481 20.34 124.581 18.976C124.889 18.58 125.505 18.096 126.429 17.524C127.353 16.908 128.387 16.27 129.531 15.61C130.675 14.95 131.775 14.356 132.831 13.828C133.887 13.256 134.679 12.86 135.207 12.64C135.779 12.376 136.439 12.2 137.187 12.112C137.979 11.98 138.793 11.914 139.629 11.914C140.817 11.914 141.917 12.024 142.929 12.244C143.941 12.42 144.513 12.618 144.645 12.838L144.909 13.102C144.997 13.674 144.909 14.356 144.645 15.148C144.425 15.896 144.139 16.754 143.787 17.722C143.611 18.206 143.413 18.69 143.193 19.174C143.017 19.658 142.863 20.12 142.731 20.56C142.423 21.308 142.269 22.1 142.269 22.936L141.081 22.21C141.301 21.418 141.411 20.736 141.411 20.164C141.411 18.932 141.103 17.876 140.487 16.996C139.871 16.116 139.101 15.456 138.177 15.016C137.253 14.532 136.329 14.334 135.405 14.422C133.425 14.642 131.819 15.368 130.587 16.6C129.399 17.832 128.805 19.086 128.805 20.362C128.805 21.374 129.245 22.298 130.125 23.134C131.049 23.926 132.523 24.366 134.547 24.454C135.075 24.454 135.889 24.52 136.989 24.652C138.089 24.784 139.145 24.938 140.157 25.114C141.169 25.29 141.829 25.51 142.137 25.774C143.193 26.566 143.721 27.534 143.721 28.678C143.721 29.91 143.171 31.274 142.071 32.77C141.015 34.266 139.827 35.784 138.507 37.324C136.747 39.436 134.767 40.866 132.567 41.614C130.367 42.362 128.013 42.736 125.505 42.736Z" fill="white"/>
    <path d="M179.293 12.112C178.765 12.112 178.237 12.046 177.709 11.914C177.225 11.738 176.675 11.496 176.059 11.188L178.831 7.49197C179.183 7.66797 179.667 7.75597 180.283 7.75597C181.251 7.75597 182.351 7.55797 183.583 7.16197C184.815 6.72197 185.937 6.14997 186.949 5.44597C187.301 4.87397 187.697 4.58797 188.137 4.58797C188.401 4.58797 188.533 4.71997 188.533 4.98397C188.533 5.15997 188.401 5.44597 188.137 5.84197C187.873 6.23797 187.367 6.76597 186.619 7.42597C185.915 8.04197 185.145 8.70197 184.309 9.40597C183.517 10.066 182.835 10.638 182.263 11.122C181.691 11.562 181.405 11.782 181.405 11.782C181.009 11.87 180.635 11.958 180.283 12.046C179.975 12.09 179.645 12.112 179.293 12.112ZM168.931 43.66C168.887 43.44 168.865 43.198 168.865 42.934C168.865 42.626 168.865 42.318 168.865 42.01C168.865 40.646 168.953 39.018 169.129 37.126C169.349 35.234 169.635 33.276 169.987 31.252C170.383 29.228 170.801 27.38 171.241 25.708C172.121 22.716 173.089 20.428 174.145 18.844C175.201 17.26 176.719 16.116 178.699 15.412C178.919 15.324 179.315 15.192 179.887 15.016C180.503 14.796 181.141 14.554 181.801 14.29C182.461 14.026 183.033 13.806 183.517 13.63C184.001 13.454 184.243 13.366 184.243 13.366L184.507 13.96L182.725 14.752C181.933 15.104 181.119 15.83 180.283 16.93C179.447 17.986 178.677 19.24 177.973 20.692C177.269 22.1 176.719 23.53 176.323 24.982C175.883 26.742 175.465 28.59 175.069 30.526C174.673 32.418 174.387 34.2 174.211 35.872C175.619 33.804 177.247 31.714 179.095 29.602C180.987 27.446 182.835 25.774 184.639 24.586L185.101 25.246C184.001 25.906 182.857 26.962 181.669 28.414C180.525 29.866 179.403 31.428 178.303 33.1C177.247 34.772 176.345 36.334 175.597 37.786C174.849 39.238 174.365 40.338 174.145 41.086L168.931 43.66Z" fill="white"/>
    <path d="M231.888 15.016C230.7 15.016 229.512 14.884 228.324 14.62C227.18 14.356 226.014 14.224 224.826 14.224C224.034 14.224 223.308 14.312 222.648 14.488L222.384 13.762L226.938 12.112C227.554 11.98 228.17 11.914 228.786 11.914C229.402 11.914 230.04 11.958 230.7 12.046C231.36 12.134 231.976 12.222 232.548 12.31C233.12 12.354 233.692 12.42 234.264 12.508C234.88 12.552 235.496 12.574 236.112 12.574C236.596 12.574 237.058 12.552 237.498 12.508C237.982 12.42 238.466 12.332 238.95 12.244L239.28 12.706L233.538 14.884C233.23 14.928 232.944 14.972 232.68 15.016C232.416 15.016 232.152 15.016 231.888 15.016ZM207.732 43.66C207.688 43.44 207.666 43.198 207.666 42.934C207.666 42.626 207.666 42.318 207.666 42.01C207.666 40.646 207.754 39.018 207.93 37.126C208.15 35.234 208.436 33.276 208.788 31.252C209.184 29.228 209.602 27.38 210.042 25.708C210.922 22.672 211.934 20.384 213.078 18.844C214.266 17.26 215.872 16.116 217.896 15.412C218.292 15.28 218.93 15.038 219.81 14.686C220.734 14.334 221.548 14.048 222.252 13.828C222.252 13.828 222.296 13.938 222.384 14.158C222.516 14.378 222.494 14.532 222.318 14.62L220.404 15.544C219.876 15.808 219.282 16.424 218.622 17.392C218.006 18.316 217.412 19.46 216.84 20.824C216.312 22.144 215.85 23.53 215.454 24.982C215.102 26.39 214.75 27.864 214.398 29.404C214.09 30.944 213.826 32.44 213.606 33.892C213.606 33.98 213.65 34.024 213.738 34.024C213.958 34.024 214.244 33.936 214.596 33.76C214.948 33.584 215.146 33.474 215.19 33.43C215.674 33.122 216.246 32.726 216.906 32.242C217.61 31.714 218.314 31.12 219.018 30.46C220.47 29.14 221.834 27.666 223.11 26.038C224.386 24.366 225.156 22.782 225.42 21.286C225.42 21.198 225.552 21.176 225.816 21.22C226.124 21.22 226.278 21.22 226.278 21.22C225.97 23.156 225.112 25.026 223.704 26.83C222.296 28.634 220.822 30.372 219.282 32.044C218.578 32.792 217.852 33.562 217.104 34.354C216.4 35.102 215.74 35.916 215.124 36.796C214.552 37.544 214.09 38.27 213.738 38.974C213.43 39.678 213.276 40.36 213.276 41.02L207.732 43.66ZM210.57 56.068C210.482 55.76 210.504 55.496 210.636 55.276L212.946 55.078C213.562 55.034 214.42 54.638 215.52 53.89C216.62 53.186 217.72 52.24 218.82 51.052C219.92 49.864 220.756 48.566 221.328 47.158C221.68 46.366 221.922 45.684 222.054 45.112C222.23 44.54 222.384 43.836 222.516 43C222.692 42.164 222.912 40.976 223.176 39.436C223.44 37.94 223.748 36.29 224.1 34.486C224.452 32.682 224.804 30.878 225.156 29.074C225.552 27.27 225.926 25.686 226.278 24.322C226.894 21.902 227.532 20.164 228.192 19.108C228.852 18.052 229.864 17.304 231.228 16.864C231.536 16.776 232.152 16.578 233.076 16.27C234 15.918 234.946 15.566 235.914 15.214C236.926 14.818 237.652 14.554 238.092 14.422C238.092 14.422 238.136 14.532 238.224 14.752C238.356 14.972 238.334 15.126 238.158 15.214L235.386 16.732C234.946 16.996 234.484 17.304 234 17.656C233.56 18.008 233.23 18.404 233.01 18.844C232.086 20.428 231.404 22.342 230.964 24.586C230.524 26.83 230.062 29.514 229.578 32.638C229.314 34.178 229.05 35.696 228.786 37.192C228.566 38.688 228.346 40.074 228.126 41.35C227.906 42.582 227.664 43.726 227.4 44.782C227.136 45.882 226.828 46.784 226.476 47.488C226.168 48.148 225.618 48.918 224.826 49.798C224.034 50.678 223.088 51.558 221.988 52.438C220.932 53.318 219.81 54.066 218.622 54.682C217.478 55.342 216.378 55.738 215.322 55.87C214.882 55.914 214.156 55.958 213.144 56.002C212.176 56.09 211.318 56.112 210.57 56.068ZM208.986 57.52C207.578 57.52 206.346 57.388 205.29 57.124C204.234 56.904 203.134 56.574 201.99 56.134C201.154 55.87 200.736 55.496 200.736 55.012C200.736 54.748 200.802 54.462 200.934 54.154C201.154 53.67 201.484 53.142 201.924 52.57C202.32 51.998 202.738 51.426 203.178 50.854C203.53 50.458 203.86 50.062 204.168 49.666C204.476 49.27 204.762 48.896 205.026 48.544C205.554 47.84 205.906 47.114 206.082 46.366L206.61 47.422C205.554 49.006 205.026 50.48 205.026 51.844C205.026 53.252 205.642 54.396 206.874 55.276C208.062 56.2 209.8 56.64 212.088 56.596V57.322C210.988 57.454 209.954 57.52 208.986 57.52Z" fill="white"/>
    <path d="M259.481 43.66C259.877 41.152 260.361 38.534 260.933 35.806C261.549 33.034 262.077 30.394 262.517 27.886C262.869 25.994 263.155 24.234 263.375 22.606C263.639 20.978 263.771 19.614 263.771 18.514C263.771 18.162 263.771 17.832 263.771 17.524C263.771 17.216 263.727 16.952 263.639 16.732C263.639 16.732 263.199 16.864 262.319 17.128C261.483 17.392 260.405 17.92 259.085 18.712L259.481 17.392C260.317 16.908 261.285 16.336 262.385 15.676C263.529 15.016 264.651 14.356 265.751 13.696C266.851 12.992 267.753 12.376 268.457 11.848C268.677 12.156 268.809 12.574 268.853 13.102C268.941 13.63 268.985 14.246 268.985 14.95C268.985 16.138 268.875 17.524 268.655 19.108C268.479 20.648 268.237 22.32 267.929 24.124C267.753 25.356 267.533 26.588 267.269 27.82C267.005 29.052 266.763 30.306 266.543 31.582C267.335 30.13 268.347 28.612 269.579 27.028C270.811 25.4 272.153 23.816 273.605 22.276C275.057 20.736 276.531 19.328 278.027 18.052C279.567 16.776 281.019 15.742 282.383 14.95C283.439 14.378 284.671 13.828 286.079 13.3C287.487 12.772 288.741 12.288 289.841 11.848L290.171 12.442L289.181 12.838C288.125 13.278 287.157 14.158 286.277 15.478C285.397 16.754 284.583 18.294 283.835 20.098C283.131 21.902 282.493 23.794 281.921 25.774C281.393 27.754 280.953 29.646 280.601 31.45C280.249 33.21 279.985 34.684 279.809 35.872C281.217 33.804 282.867 31.692 284.759 29.536C286.651 27.38 288.499 25.708 290.303 24.52L290.831 25.18C290.039 25.664 289.049 26.544 287.861 27.82C286.717 29.096 285.551 30.548 284.363 32.176C283.175 33.804 282.141 35.41 281.261 36.994C280.381 38.578 279.875 39.92 279.743 41.02L274.529 43.66C274.485 43.396 274.463 43.132 274.463 42.868C274.463 42.56 274.463 42.252 274.463 41.944C274.463 40.36 274.617 38.512 274.925 36.4C275.277 34.244 275.695 32.044 276.179 29.8C276.707 27.556 277.279 25.422 277.895 23.398C278.555 21.374 279.171 19.68 279.743 18.316C278.863 19.02 277.807 20.032 276.575 21.352C275.387 22.628 274.133 24.102 272.813 25.774C271.537 27.446 270.305 29.206 269.117 31.054C267.973 32.858 267.005 34.662 266.213 36.466C265.421 38.226 264.915 39.832 264.695 41.284L259.481 43.66Z" fill="white"/>
    <path d="M62.0003 117.736C58.7883 117.736 55.8183 117.12 53.0903 115.888C50.4063 114.656 48.2503 112.874 46.6223 110.542C44.9943 108.21 44.1803 105.394 44.1803 102.094C44.1803 98.574 45.0163 95.23 46.6883 92.062C48.4043 88.894 50.7803 86.078 53.8163 83.614C56.8963 81.106 60.5263 79.148 64.7063 77.74C68.8863 76.288 73.4403 75.562 78.3683 75.562C79.2483 75.562 80.2163 75.672 81.2723 75.892C82.3723 76.068 83.3183 76.442 84.1103 77.014C84.9023 77.542 85.2983 78.334 85.2983 79.39C85.2983 79.698 85.2323 79.984 85.1003 80.248C85.0123 80.512 84.9243 80.776 84.8363 81.04C84.6603 81.744 84.3963 82.448 84.0443 83.152C83.7363 83.812 83.4283 84.472 83.1203 85.132C82.8123 85.88 82.4603 86.738 82.0643 87.706C81.6683 88.63 81.2943 89.598 80.9423 90.61L80.0843 90.016C80.0843 90.016 80.2163 89.664 80.4803 88.96C80.7443 88.256 81.0083 87.464 81.2723 86.584C81.5803 85.704 81.7563 85.022 81.8003 84.538C81.8883 83.35 81.6243 82.404 81.0083 81.7C80.4363 80.996 79.6443 80.468 78.6323 80.116C77.6643 79.764 76.6303 79.544 75.5303 79.456C74.4303 79.324 73.4183 79.258 72.4943 79.258C69.8543 79.258 67.2803 79.61 64.7723 80.314C62.2643 81.018 59.9983 82.118 57.9743 83.614C55.9503 85.066 54.2783 86.958 52.9583 89.29C51.6823 91.578 50.9343 94.35 50.7143 97.606C50.7143 97.826 50.6923 98.068 50.6483 98.332C50.6483 98.552 50.6483 98.772 50.6483 98.992C50.6483 101.764 51.1543 104.206 52.1663 106.318C53.2223 108.43 54.5643 110.212 56.1923 111.664C57.8203 113.116 59.6023 114.216 61.5383 114.964C63.4743 115.668 65.3223 116.02 67.0823 116.02C68.8863 116.02 70.4923 115.624 71.9003 114.832C73.3083 114.04 74.2543 112.852 74.7383 111.268C75.0903 110.036 75.3763 108.65 75.5963 107.11C75.8603 105.526 76.1243 104.118 76.3883 102.886C76.5643 102.05 76.4103 101.456 75.9263 101.104C75.4863 100.708 75.0683 100.488 74.6723 100.444C74.3203 100.4 73.7263 100.356 72.8903 100.312C72.0983 100.268 71.2623 100.246 70.3823 100.246C69.5463 100.202 68.8203 100.18 68.2043 100.18C68.0283 100.224 67.7203 100.246 67.2803 100.246C66.8843 100.246 66.6863 100.246 66.6863 100.246L67.3463 99.124C69.4143 99.168 71.4603 99.234 73.4843 99.322C75.5523 99.41 77.5983 99.454 79.6223 99.454C80.1943 99.454 81.1403 99.454 82.4603 99.454C83.8243 99.41 85.4303 99.366 87.2783 99.322C89.1703 99.234 91.1503 99.146 93.2183 99.058L92.4923 100.18C92.0523 100.136 91.5903 100.114 91.1063 100.114C90.6663 100.114 90.2483 100.114 89.8523 100.114H87.8063C86.7503 100.114 85.9143 100.29 85.2983 100.642C84.7263 100.994 84.2203 101.61 83.7803 102.49C83.3843 103.326 82.9003 104.514 82.3283 106.054C82.1523 106.538 81.9323 107.44 81.6683 108.76C81.4483 110.036 81.2503 111.422 81.0743 112.918C80.8983 114.37 80.7883 115.646 80.7443 116.746C80.7443 117.318 80.5903 117.604 80.2823 117.604C80.0183 117.604 79.7103 117.45 79.3583 117.142C79.0943 116.922 78.6983 116.768 78.1703 116.68C77.6423 116.592 77.0043 116.548 76.2563 116.548C74.9363 116.548 73.3743 116.658 71.5703 116.878C69.8103 117.054 68.0723 117.252 66.3563 117.472C64.6843 117.648 63.2323 117.736 62.0003 117.736Z" fill="white" fill-opacity="0.8"/>
    <path d="M131.718 98.53L130.926 98.002C131.014 97.562 131.08 97.166 131.124 96.814C131.212 96.418 131.256 96.044 131.256 95.692C131.256 94.284 130.838 93.206 130.002 92.458C129.21 91.71 128.154 91.336 126.834 91.336C125.602 91.336 124.172 91.71 122.544 92.458L122.214 91.93C124.282 90.742 126.196 89.818 127.956 89.158C129.76 88.498 131.476 88.168 133.104 88.168H133.368C133.852 88.168 134.094 88.432 134.094 88.96C134.094 89.532 133.984 90.214 133.764 91.006C133.544 91.754 133.302 92.546 133.038 93.382C132.862 93.822 132.708 94.262 132.576 94.702C132.444 95.098 132.334 95.516 132.246 95.956C131.938 97.056 131.762 97.914 131.718 98.53ZM117.33 118.066C116.01 118.066 114.778 117.868 113.634 117.472C112.49 117.076 111.676 116.372 111.192 115.36C110.884 114.744 110.664 114.04 110.532 113.248C110.444 112.412 110.4 111.554 110.4 110.674C110.4 109.09 110.554 107.418 110.862 105.658C111.214 103.854 111.61 102.204 112.05 100.708C112.974 97.716 114.008 95.428 115.152 93.844C116.296 92.26 117.858 91.116 119.838 90.412C120.146 90.324 120.63 90.148 121.29 89.884C121.994 89.62 122.698 89.356 123.402 89.092C124.15 88.784 124.744 88.564 125.184 88.432L125.25 89.224L121.356 91.336C120.784 91.644 120.19 92.348 119.574 93.448C118.958 94.504 118.386 95.78 117.858 97.276C117.33 98.772 116.846 100.312 116.406 101.896L120.564 99.916C121.092 99.784 121.664 99.718 122.28 99.718C122.852 99.718 123.402 99.762 123.93 99.85C124.502 99.938 125.074 100.026 125.646 100.114C126.658 100.246 127.692 100.312 128.748 100.312C129.188 100.312 129.628 100.29 130.068 100.246C130.552 100.202 131.014 100.136 131.454 100.048L131.718 100.51L125.58 103.546C125.316 103.59 125.052 103.634 124.788 103.678C124.568 103.678 124.326 103.678 124.062 103.678C123.006 103.678 121.928 103.546 120.828 103.282C119.772 103.018 118.716 102.886 117.66 102.886C117.396 102.886 117.132 102.886 116.868 102.886C116.648 102.886 116.406 102.93 116.142 103.018C115.922 104.074 115.724 105.108 115.548 106.12C115.416 107.088 115.35 108.012 115.35 108.892C115.35 110.256 115.548 111.378 115.944 112.258C116.516 113.49 117.352 114.458 118.452 115.162C119.552 115.822 120.762 116.152 122.082 116.152C124.018 116.152 125.932 115.36 127.824 113.776C129.716 112.192 131.08 109.64 131.916 106.12L132.84 106.78C132.444 107.88 132.026 109.09 131.586 110.41C131.146 111.686 130.75 113.248 130.398 115.096C129.958 115.8 129.408 116.262 128.748 116.482C128.088 116.702 127.34 116.812 126.504 116.812C126.196 116.812 125.844 116.812 125.448 116.812C125.052 116.768 124.656 116.746 124.26 116.746C123.644 117.054 122.676 117.362 121.356 117.67C120.08 117.934 118.738 118.066 117.33 118.066Z" fill="white" fill-opacity="0.8"/>
    <path d="M162.185 117.736C161.349 117.736 160.469 117.714 159.545 117.67C158.665 117.582 157.763 117.494 156.839 117.406L156.641 117.142C156.553 116.57 156.663 115.844 156.971 114.964C157.235 114.04 157.543 113.094 157.895 112.126C158.027 111.774 158.225 111.246 158.489 110.542C158.753 109.794 159.017 109.068 159.281 108.364C159.545 107.616 159.721 107.11 159.809 106.846C159.941 106.406 160.051 106.01 160.139 105.658C160.227 105.306 160.271 104.91 160.271 104.47L160.997 105.262C160.909 105.658 160.843 106.076 160.799 106.516C160.755 106.912 160.733 107.308 160.733 107.704C160.733 109.596 161.261 111.246 162.317 112.654C163.417 114.018 164.979 114.7 167.003 114.7C168.543 114.7 169.929 114.37 171.161 113.71C172.437 113.006 173.449 112.126 174.197 111.07C174.945 109.97 175.319 108.87 175.319 107.77C175.319 107.242 175.209 106.692 174.989 106.12C174.593 105.108 173.647 104.404 172.151 104.008C170.699 103.612 169.203 103.37 167.663 103.282C164.979 103.062 162.955 102.446 161.591 101.434C160.271 100.422 159.611 99.234 159.611 97.87C159.611 96.638 160.161 95.34 161.261 93.976C161.569 93.58 162.185 93.096 163.109 92.524C164.033 91.908 165.067 91.27 166.211 90.61C167.355 89.95 168.455 89.356 169.511 88.828C170.567 88.256 171.359 87.86 171.887 87.64C172.459 87.376 173.119 87.2 173.867 87.112C174.659 86.98 175.473 86.914 176.309 86.914C177.497 86.914 178.597 87.024 179.609 87.244C180.621 87.42 181.193 87.618 181.325 87.838L181.589 88.102C181.677 88.674 181.589 89.356 181.325 90.148C181.105 90.896 180.819 91.754 180.467 92.722C180.291 93.206 180.093 93.69 179.873 94.174C179.697 94.658 179.543 95.12 179.411 95.56C179.103 96.308 178.949 97.1 178.949 97.936L177.761 97.21C177.981 96.418 178.091 95.736 178.091 95.164C178.091 93.932 177.783 92.876 177.167 91.996C176.551 91.116 175.781 90.456 174.857 90.016C173.933 89.532 173.009 89.334 172.085 89.422C170.105 89.642 168.499 90.368 167.267 91.6C166.079 92.832 165.485 94.086 165.485 95.362C165.485 96.374 165.925 97.298 166.805 98.134C167.729 98.926 169.203 99.366 171.227 99.454C171.755 99.454 172.569 99.52 173.669 99.652C174.769 99.784 175.825 99.938 176.837 100.114C177.849 100.29 178.509 100.51 178.817 100.774C179.873 101.566 180.401 102.534 180.401 103.678C180.401 104.91 179.851 106.274 178.751 107.77C177.695 109.266 176.507 110.784 175.187 112.324C173.427 114.436 171.447 115.866 169.247 116.614C167.047 117.362 164.693 117.736 162.185 117.736Z" fill="white" fill-opacity="0.8"/>
    <path d="M205.216 118.66C205.128 115.976 205.304 113.094 205.744 110.014C206.184 106.934 206.8 103.854 207.592 100.774C208.384 97.694 209.308 94.812 210.364 92.128C209.968 92.128 209.594 92.128 209.242 92.128C208.89 92.084 208.538 92.04 208.186 91.996C206.778 91.908 205.634 91.996 204.754 92.26L204.49 91.534L209.11 89.884C209.462 89.796 209.836 89.73 210.232 89.686C210.628 89.642 211.024 89.62 211.42 89.62C212.476 87.156 213.576 85.066 214.72 83.35C215.908 81.634 217.008 80.556 218.02 80.116L225.478 76.948L225.676 77.41C223.388 78.774 221.43 80.512 219.802 82.624C218.218 84.736 216.876 87.068 215.776 89.62C216.788 89.664 217.8 89.708 218.812 89.752C219.868 89.796 220.902 89.818 221.914 89.818C223.234 89.818 224.554 89.752 225.874 89.62C227.194 89.488 228.47 89.202 229.702 88.762L230.098 89.158L223.96 91.798C222.86 92.106 221.738 92.304 220.594 92.392C219.494 92.48 218.394 92.524 217.294 92.524C216.854 92.524 216.414 92.524 215.974 92.524C215.534 92.524 215.094 92.502 214.654 92.458C213.598 95.45 212.784 98.574 212.212 101.83C211.684 105.086 211.244 108.21 210.892 111.202C211.86 109.794 212.96 108.342 214.192 106.846C215.424 105.35 216.7 103.964 218.02 102.688C219.384 101.412 220.66 100.378 221.848 99.586L222.376 100.246C221.276 100.906 220.11 101.984 218.878 103.48C217.646 104.932 216.458 106.516 215.314 108.232C214.214 109.948 213.246 111.554 212.41 113.05C211.618 114.502 211.112 115.602 210.892 116.35L205.216 118.66Z" fill="white" fill-opacity="0.8"/>
    <path d="M268.556 90.148C267.148 90.28 265.982 90.148 265.058 89.752C264.134 89.356 263.1 89.158 261.956 89.158C261.296 89.158 260.57 89.29 259.778 89.554L259.58 88.828C260.636 88.3 261.758 87.816 262.946 87.376C264.178 86.936 265.344 86.716 266.444 86.716C267.148 86.716 267.83 86.782 268.49 86.914C269.15 87.046 269.832 87.178 270.536 87.31C271.02 87.354 271.504 87.42 271.988 87.508C272.472 87.552 272.978 87.574 273.506 87.574C273.902 87.574 274.32 87.552 274.76 87.508C275.244 87.464 275.728 87.398 276.212 87.31L276.476 87.772C276.476 87.772 276.124 87.882 275.42 88.102C274.76 88.322 273.946 88.586 272.978 88.894C272.01 89.202 271.108 89.488 270.272 89.752C269.436 89.972 268.864 90.104 268.556 90.148ZM260.372 118.66C260.328 118.44 260.306 118.176 260.306 117.868C260.306 117.56 260.306 117.23 260.306 116.878C260.306 115.558 260.394 113.952 260.57 112.06C260.79 110.168 261.076 108.232 261.428 106.252C261.78 104.228 262.176 102.38 262.616 100.708C263.496 97.716 264.42 95.428 265.388 93.844C266.4 92.26 267.896 91.116 269.876 90.412C270.096 90.324 270.492 90.192 271.064 90.016C271.68 89.796 272.318 89.554 272.978 89.29C273.638 89.026 274.21 88.806 274.694 88.63C275.178 88.454 275.42 88.366 275.42 88.366L275.684 88.96L273.902 89.752C273.11 90.104 272.296 90.83 271.46 91.93C270.624 92.986 269.854 94.24 269.15 95.692C268.446 97.1 267.896 98.53 267.5 99.982C267.06 101.742 266.686 103.59 266.378 105.526C266.07 107.418 265.828 109.2 265.652 110.872C266.62 109.508 267.676 108.122 268.82 106.714C269.964 105.262 271.152 103.92 272.384 102.688C273.66 101.412 274.892 100.378 276.08 99.586L276.608 100.246C275.508 100.906 274.364 101.962 273.176 103.414C271.988 104.866 270.844 106.428 269.744 108.1C268.688 109.772 267.786 111.334 267.038 112.786C266.29 114.238 265.806 115.338 265.586 116.086L260.372 118.66ZM244.994 118.66C244.95 118.44 244.928 118.176 244.928 117.868C244.928 117.56 244.928 117.23 244.928 116.878C244.928 115.558 245.016 113.952 245.192 112.06C245.412 110.168 245.698 108.232 246.05 106.252C246.402 104.228 246.798 102.38 247.238 100.708C248.118 97.672 249.13 95.384 250.274 93.844C251.462 92.26 253.046 91.116 255.026 90.412C255.466 90.28 256.06 90.082 256.808 89.818C257.556 89.51 258.282 89.246 258.986 89.026L259.25 89.752L257.336 90.742C256.544 91.182 255.686 92.282 254.762 94.042C253.838 95.802 253.068 97.782 252.452 99.982C252.1 101.39 251.748 102.864 251.396 104.404C251.088 105.944 250.824 107.44 250.604 108.892C250.604 108.98 250.67 109.024 250.802 109.024C251.022 109.024 251.33 108.936 251.726 108.76C252.122 108.584 252.342 108.474 252.386 108.43C252.87 108.122 253.442 107.726 254.102 107.242C254.806 106.714 255.51 106.12 256.214 105.46C257.666 104.14 259.008 102.666 260.24 101.038C261.516 99.366 262.308 97.782 262.616 96.286C262.616 96.198 262.748 96.176 263.012 96.22C263.32 96.22 263.474 96.22 263.474 96.22C263.166 98.156 262.308 100.026 260.9 101.83C259.492 103.634 258.018 105.372 256.478 107.044C255.774 107.792 255.048 108.562 254.3 109.354C253.596 110.102 252.936 110.916 252.32 111.796C251.748 112.544 251.286 113.27 250.934 113.974C250.626 114.678 250.472 115.36 250.472 116.02L244.994 118.66Z" fill="white" fill-opacity="0.8"/>
    <path d="M298.015 118.66C298.191 117.252 298.411 115.426 298.675 113.182C298.983 110.938 299.379 108.452 299.863 105.724C300.347 102.996 300.919 100.18 301.579 97.276C302.239 94.372 303.009 91.556 303.889 88.828C304.813 86.1 305.847 83.636 306.991 81.436C308.179 79.192 309.477 77.388 310.885 76.024C312.337 74.616 313.943 73.802 315.703 73.582C316.011 73.538 316.583 73.428 317.419 73.252C318.255 73.032 319.047 72.834 319.795 72.658C320.543 72.438 320.917 72.328 320.917 72.328L320.983 72.79L319.399 73.714C317.375 74.902 315.571 76.618 313.987 78.862C312.403 81.062 311.017 83.57 309.829 86.386C308.641 89.158 307.607 92.04 306.727 95.032C305.891 98.024 305.187 100.906 304.615 103.678C304.087 106.406 303.647 108.804 303.295 110.872C304.703 108.804 306.331 106.714 308.179 104.602C310.071 102.446 311.919 100.774 313.723 99.586L314.251 100.246C313.151 100.906 312.007 101.962 310.819 103.414C309.631 104.866 308.487 106.428 307.387 108.1C306.331 109.772 305.429 111.334 304.681 112.786C303.933 114.238 303.449 115.338 303.229 116.086L298.015 118.66ZM326.197 82.69L325.471 81.964C325.735 80.908 325.867 79.984 325.867 79.192C325.867 77.784 325.515 76.706 324.811 75.958C324.151 75.21 323.227 74.836 322.039 74.836C320.983 74.836 319.751 75.166 318.343 75.826L318.013 75.298C319.465 74.462 320.719 73.846 321.775 73.45C322.875 73.054 323.931 72.79 324.943 72.658C325.955 72.482 327.077 72.372 328.309 72.328L328.507 72.526C328.551 72.614 328.573 72.812 328.573 73.12C328.573 73.692 328.463 74.374 328.243 75.166C328.023 75.958 327.781 76.75 327.517 77.542C327.341 78.026 327.165 78.51 326.989 78.994C326.813 79.434 326.681 79.874 326.593 80.314C326.461 80.754 326.351 81.172 326.263 81.568C326.175 81.92 326.153 82.294 326.197 82.69Z" fill="white" fill-opacity="0.8"/>
    <path d="M337.891 118.66C337.803 115.976 337.979 113.094 338.419 110.014C338.859 106.934 339.475 103.854 340.267 100.774C341.059 97.694 341.983 94.812 343.039 92.128C342.643 92.128 342.269 92.128 341.917 92.128C341.565 92.084 341.213 92.04 340.861 91.996C339.453 91.908 338.309 91.996 337.429 92.26L337.165 91.534L341.785 89.884C342.137 89.796 342.511 89.73 342.907 89.686C343.303 89.642 343.699 89.62 344.095 89.62C345.151 87.156 346.251 85.066 347.395 83.35C348.583 81.634 349.683 80.556 350.695 80.116L358.153 76.948L358.351 77.41C356.063 78.774 354.105 80.512 352.477 82.624C350.893 84.736 349.551 87.068 348.451 89.62C349.463 89.664 350.475 89.708 351.487 89.752C352.543 89.796 353.577 89.818 354.589 89.818C355.909 89.818 357.229 89.752 358.549 89.62C359.869 89.488 361.145 89.202 362.377 88.762L362.773 89.158L356.635 91.798C355.535 92.106 354.413 92.304 353.269 92.392C352.169 92.48 351.069 92.524 349.969 92.524C349.529 92.524 349.089 92.524 348.649 92.524C348.209 92.524 347.769 92.502 347.329 92.458C346.273 95.45 345.459 98.574 344.887 101.83C344.359 105.086 343.919 108.21 343.567 111.202C344.535 109.794 345.635 108.342 346.867 106.846C348.099 105.35 349.375 103.964 350.695 102.688C352.059 101.412 353.335 100.378 354.523 99.586L355.051 100.246C353.951 100.906 352.785 101.984 351.553 103.48C350.321 104.932 349.133 106.516 347.989 108.232C346.889 109.948 345.921 111.554 345.085 113.05C344.293 114.502 343.787 115.602 343.567 116.35L337.891 118.66Z" fill="white" fill-opacity="0.8"/>
    <path d="M377.075 119.254C377.823 116.966 378.549 114.546 379.253 111.994C379.957 109.442 380.573 106.934 381.101 104.47C381.673 101.962 382.091 99.63 382.355 97.474C382.663 95.274 382.773 93.404 382.685 91.864C382.245 92.04 381.607 92.348 380.771 92.788C379.979 93.184 379.385 93.448 378.989 93.58L379.385 92.26C380.089 91.996 380.969 91.6 382.025 91.072C383.081 90.544 384.159 89.972 385.259 89.356C386.359 88.696 387.305 88.102 388.097 87.574C388.185 87.838 388.229 88.19 388.229 88.63C388.229 89.642 388.075 91.138 387.767 93.118C387.503 95.054 387.151 97.21 386.711 99.586C386.271 101.918 385.787 104.272 385.259 106.648C384.775 108.98 384.291 111.048 383.807 112.852C386.051 111.224 387.899 109.442 389.351 107.506C390.847 105.526 392.101 103.414 393.113 101.17C394.169 98.926 395.159 96.572 396.083 94.108C396.699 92.48 397.491 91.204 398.459 90.28C399.471 89.356 400.681 88.652 402.089 88.168C402.309 88.08 402.705 87.948 403.277 87.772C403.893 87.552 404.531 87.31 405.191 87.046C405.851 86.782 406.423 86.562 406.907 86.386C407.391 86.21 407.633 86.122 407.633 86.122L407.897 86.914L406.115 87.706C404.795 88.278 403.629 89.466 402.617 91.27C401.605 93.03 400.747 95.12 400.043 97.54C399.339 99.916 398.789 102.38 398.393 104.932C397.997 107.44 397.777 109.75 397.733 111.862C398.305 110.894 399.053 109.794 399.977 108.562C400.945 107.33 401.957 106.12 403.013 104.932C404.113 103.7 405.169 102.622 406.181 101.698C407.237 100.73 408.117 100.026 408.821 99.586L409.283 100.246C407.875 101.302 406.555 102.6 405.323 104.14C404.091 105.636 402.991 107.176 402.023 108.76C401.055 110.344 400.241 111.796 399.581 113.116C398.965 114.392 398.547 115.36 398.327 116.02L393.047 118.66C392.915 118.396 392.849 117.67 392.849 116.482C392.849 115.514 392.893 114.392 392.981 113.116C393.069 111.796 393.157 110.498 393.245 109.222C393.377 107.946 393.509 106.846 393.641 105.922C393.773 104.998 393.883 104.426 393.971 104.206C393.135 105.306 392.145 106.516 391.001 107.836C389.857 109.156 388.691 110.432 387.503 111.664C386.359 112.852 385.347 113.908 384.467 114.832C383.587 115.712 382.971 116.284 382.619 116.548L377.075 119.254Z" fill="white" fill-opacity="0.8"/>
    <path d="M429.159 118.66C429.555 116.152 430.039 113.534 430.611 110.806C431.227 108.034 431.755 105.394 432.195 102.886C432.547 100.994 432.833 99.234 433.053 97.606C433.317 95.978 433.449 94.614 433.449 93.514C433.449 93.162 433.449 92.832 433.449 92.524C433.449 92.216 433.405 91.952 433.317 91.732C433.317 91.732 432.877 91.864 431.997 92.128C431.161 92.392 430.083 92.92 428.763 93.712L429.159 92.392C429.995 91.908 430.963 91.336 432.063 90.676C433.207 90.016 434.329 89.356 435.429 88.696C436.529 87.992 437.431 87.376 438.135 86.848C438.355 87.156 438.487 87.574 438.531 88.102C438.619 88.63 438.663 89.246 438.663 89.95C438.663 91.138 438.553 92.524 438.333 94.108C438.157 95.648 437.915 97.32 437.607 99.124C437.431 100.356 437.211 101.588 436.947 102.82C436.683 104.052 436.441 105.306 436.221 106.582C437.013 105.13 438.025 103.612 439.257 102.028C440.489 100.4 441.831 98.816 443.283 97.276C444.735 95.736 446.209 94.328 447.705 93.052C449.245 91.776 450.697 90.742 452.061 89.95C453.117 89.378 454.349 88.828 455.757 88.3C457.165 87.772 458.419 87.288 459.519 86.848L459.849 87.442L458.859 87.838C457.803 88.278 456.835 89.158 455.955 90.478C455.075 91.754 454.261 93.294 453.513 95.098C452.809 96.902 452.171 98.794 451.599 100.774C451.071 102.754 450.631 104.646 450.279 106.45C449.927 108.21 449.663 109.684 449.487 110.872C450.895 108.804 452.545 106.692 454.437 104.536C456.329 102.38 458.177 100.708 459.981 99.52L460.509 100.18C459.717 100.664 458.727 101.544 457.539 102.82C456.395 104.096 455.229 105.548 454.041 107.176C452.853 108.804 451.819 110.41 450.939 111.994C450.059 113.578 449.553 114.92 449.421 116.02L444.207 118.66C444.163 118.396 444.141 118.132 444.141 117.868C444.141 117.56 444.141 117.252 444.141 116.944C444.141 115.36 444.295 113.512 444.603 111.4C444.955 109.244 445.373 107.044 445.857 104.8C446.385 102.556 446.957 100.422 447.573 98.398C448.233 96.374 448.849 94.68 449.421 93.316C448.541 94.02 447.485 95.032 446.253 96.352C445.065 97.628 443.811 99.102 442.491 100.774C441.215 102.446 439.983 104.206 438.795 106.054C437.651 107.858 436.683 109.662 435.891 111.466C435.099 113.226 434.593 114.832 434.373 116.284L429.159 118.66Z" fill="white" fill-opacity="0.8"/>
    <path d="M505.743 90.016C504.555 90.016 503.367 89.884 502.179 89.62C501.035 89.356 499.869 89.224 498.681 89.224C497.889 89.224 497.163 89.312 496.503 89.488L496.239 88.762L500.793 87.112C501.409 86.98 502.025 86.914 502.641 86.914C503.257 86.914 503.895 86.958 504.555 87.046C505.215 87.134 505.831 87.222 506.403 87.31C506.975 87.354 507.547 87.42 508.119 87.508C508.735 87.552 509.351 87.574 509.967 87.574C510.451 87.574 510.913 87.552 511.353 87.508C511.837 87.42 512.321 87.332 512.805 87.244L513.135 87.706L507.393 89.884C507.085 89.928 506.799 89.972 506.535 90.016C506.271 90.016 506.007 90.016 505.743 90.016ZM481.587 118.66C481.543 118.44 481.521 118.198 481.521 117.934C481.521 117.626 481.521 117.318 481.521 117.01C481.521 115.646 481.609 114.018 481.785 112.126C482.005 110.234 482.291 108.276 482.643 106.252C483.039 104.228 483.457 102.38 483.897 100.708C484.777 97.672 485.789 95.384 486.933 93.844C488.121 92.26 489.727 91.116 491.751 90.412C492.147 90.28 492.785 90.038 493.665 89.686C494.589 89.334 495.403 89.048 496.107 88.828C496.107 88.828 496.151 88.938 496.239 89.158C496.371 89.378 496.349 89.532 496.173 89.62L494.259 90.544C493.731 90.808 493.137 91.424 492.477 92.392C491.861 93.316 491.267 94.46 490.695 95.824C490.167 97.144 489.705 98.53 489.309 99.982C488.957 101.39 488.605 102.864 488.253 104.404C487.945 105.944 487.681 107.44 487.461 108.892C487.461 108.98 487.505 109.024 487.593 109.024C487.813 109.024 488.099 108.936 488.451 108.76C488.803 108.584 489.001 108.474 489.045 108.43C489.529 108.122 490.101 107.726 490.761 107.242C491.465 106.714 492.169 106.12 492.873 105.46C494.325 104.14 495.689 102.666 496.965 101.038C498.241 99.366 499.011 97.782 499.275 96.286C499.275 96.198 499.407 96.176 499.671 96.22C499.979 96.22 500.133 96.22 500.133 96.22C499.825 98.156 498.967 100.026 497.559 101.83C496.151 103.634 494.677 105.372 493.137 107.044C492.433 107.792 491.707 108.562 490.959 109.354C490.255 110.102 489.595 110.916 488.979 111.796C488.407 112.544 487.945 113.27 487.593 113.974C487.285 114.678 487.131 115.36 487.131 116.02L481.587 118.66ZM484.425 131.068C484.337 130.76 484.359 130.496 484.491 130.276L486.801 130.078C487.417 130.034 488.275 129.638 489.375 128.89C490.475 128.186 491.575 127.24 492.675 126.052C493.775 124.864 494.611 123.566 495.183 122.158C495.535 121.366 495.777 120.684 495.909 120.112C496.085 119.54 496.239 118.836 496.371 118C496.547 117.164 496.767 115.976 497.031 114.436C497.295 112.94 497.603 111.29 497.955 109.486C498.307 107.682 498.659 105.878 499.011 104.074C499.407 102.27 499.781 100.686 500.133 99.322C500.749 96.902 501.387 95.164 502.047 94.108C502.707 93.052 503.719 92.304 505.083 91.864C505.391 91.776 506.007 91.578 506.931 91.27C507.855 90.918 508.801 90.566 509.769 90.214C510.781 89.818 511.507 89.554 511.947 89.422C511.947 89.422 511.991 89.532 512.079 89.752C512.211 89.972 512.189 90.126 512.013 90.214L509.241 91.732C508.801 91.996 508.339 92.304 507.855 92.656C507.415 93.008 507.085 93.404 506.865 93.844C505.941 95.428 505.259 97.342 504.819 99.586C504.379 101.83 503.917 104.514 503.433 107.638C503.169 109.178 502.905 110.696 502.641 112.192C502.421 113.688 502.201 115.074 501.981 116.35C501.761 117.582 501.519 118.726 501.255 119.782C500.991 120.882 500.683 121.784 500.331 122.488C500.023 123.148 499.473 123.918 498.681 124.798C497.889 125.678 496.943 126.558 495.843 127.438C494.787 128.318 493.665 129.066 492.477 129.682C491.333 130.342 490.233 130.738 489.177 130.87C488.737 130.914 488.011 130.958 486.999 131.002C486.031 131.09 485.173 131.112 484.425 131.068ZM482.841 132.52C481.433 132.52 480.201 132.388 479.145 132.124C478.089 131.904 476.989 131.574 475.845 131.134C475.009 130.87 474.591 130.496 474.591 130.012C474.591 129.748 474.657 129.462 474.789 129.154C475.009 128.67 475.339 128.142 475.779 127.57C476.175 126.998 476.593 126.426 477.033 125.854C477.385 125.458 477.715 125.062 478.023 124.666C478.331 124.27 478.617 123.896 478.881 123.544C479.409 122.84 479.761 122.114 479.937 121.366L480.465 122.422C479.409 124.006 478.881 125.48 478.881 126.844C478.881 128.252 479.497 129.396 480.729 130.276C481.917 131.2 483.655 131.64 485.943 131.596V132.322C484.843 132.454 483.809 132.52 482.841 132.52Z" fill="white" fill-opacity="0.8"/>
    <path d="M110.505 194.736C108.789 194.736 106.941 194.626 104.961 194.406C103.025 194.186 100.781 194.054 98.2288 194.01C97.9648 193.966 97.5688 193.944 97.0408 193.944C96.5568 193.944 95.9628 193.944 95.2588 193.944C94.3348 193.988 92.8388 194.032 90.7708 194.076C88.7468 194.12 86.7008 194.142 84.6328 194.142H83.3788L84.1048 193.02C84.1048 193.02 84.2148 193.02 84.4348 193.02C84.6988 193.02 84.8748 193.042 84.9628 193.086C85.8428 193.086 86.6348 193.108 87.3388 193.152C88.0428 193.152 88.6808 193.152 89.2528 193.152C90.4848 193.152 91.4528 193.086 92.1568 192.954C92.8608 192.778 93.4328 192.448 93.8728 191.964C94.3128 191.436 94.6868 190.666 94.9948 189.654C95.3468 188.642 95.7868 187.3 96.3148 185.628C97.0188 183.296 97.6568 180.92 98.2288 178.5C98.8448 176.036 99.3728 173.682 99.8128 171.438C100.253 169.15 100.605 167.126 100.869 165.366C101.133 163.562 101.309 162.198 101.397 161.274C101.441 160.878 101.485 160.416 101.529 159.888C101.617 159.36 101.661 158.81 101.661 158.238C101.661 157.358 101.529 156.566 101.265 155.862C101.001 155.158 100.451 154.74 99.6148 154.608C99.2628 154.52 98.6688 154.476 97.8328 154.476C97.0408 154.432 96.2048 154.41 95.3248 154.41C94.4888 154.366 93.7628 154.344 93.1468 154.344H91.6288L92.2888 153.288L93.4768 153.222C93.9608 153.178 94.4448 153.156 94.9288 153.156C95.4128 153.156 95.8748 153.156 96.3148 153.156C98.2068 153.156 100.011 153.222 101.727 153.354C103.487 153.442 105.181 153.486 106.809 153.486H108.195C110.131 153.486 112.089 153.354 114.069 153.09C116.093 152.826 118.051 152.694 119.943 152.694C122.231 152.694 124.409 153.09 126.477 153.882C128.589 154.63 130.503 156.17 132.219 158.502C133.627 160.394 134.617 162.264 135.189 164.112C135.761 165.96 136.047 167.786 136.047 169.59C136.047 172.626 135.365 175.42 134.001 177.972C132.637 180.48 131.119 182.504 129.447 184.044L124.431 188.664C121.747 191.128 119.327 192.756 117.171 193.548C115.059 194.34 112.837 194.736 110.505 194.736ZM110.769 192.03C112.089 192.03 113.409 191.854 114.729 191.502C116.093 191.106 117.347 190.644 118.491 190.116C119.635 189.588 120.515 189.06 121.131 188.532C123.815 186.376 125.795 183.846 127.071 180.942C128.391 178.038 129.051 175.09 129.051 172.098C129.051 168.93 128.303 165.916 126.807 163.056C125.355 160.196 123.177 157.908 120.273 156.192C119.437 155.708 118.579 155.334 117.699 155.07C116.819 154.762 115.939 154.608 115.059 154.608C113.827 154.608 112.683 154.938 111.627 155.598C110.615 156.214 109.779 157.27 109.119 158.766C108.415 160.306 107.777 162.154 107.205 164.31C106.677 166.422 106.193 168.578 105.753 170.778C105.313 172.934 104.939 174.914 104.631 176.718C104.367 178.478 104.169 179.82 104.037 180.744C103.773 182.108 103.641 183.34 103.641 184.44C103.641 187.3 104.345 189.28 105.753 190.38C107.205 191.48 108.877 192.03 110.769 192.03Z" fill="white" fill-opacity="0.6"/>
    <path d="M166.586 164.112C166.058 164.112 165.53 164.046 165.002 163.914C164.518 163.738 163.968 163.496 163.352 163.188L166.124 159.492C166.476 159.668 166.96 159.756 167.576 159.756C168.544 159.756 169.644 159.558 170.876 159.162C172.108 158.722 173.23 158.15 174.242 157.446C174.594 156.874 174.99 156.588 175.43 156.588C175.694 156.588 175.826 156.72 175.826 156.984C175.826 157.16 175.694 157.446 175.43 157.842C175.166 158.238 174.66 158.766 173.912 159.426C173.208 160.042 172.438 160.702 171.602 161.406C170.81 162.066 170.128 162.638 169.556 163.122C168.984 163.562 168.698 163.782 168.698 163.782C168.302 163.87 167.928 163.958 167.576 164.046C167.268 164.09 166.938 164.112 166.586 164.112ZM156.224 195.66C156.18 195.44 156.158 195.198 156.158 194.934C156.158 194.626 156.158 194.318 156.158 194.01C156.158 192.646 156.246 191.018 156.422 189.126C156.642 187.234 156.928 185.276 157.28 183.252C157.676 181.228 158.094 179.38 158.534 177.708C159.414 174.716 160.382 172.428 161.438 170.844C162.494 169.26 164.012 168.116 165.992 167.412C166.212 167.324 166.608 167.192 167.18 167.016C167.796 166.796 168.434 166.554 169.094 166.29C169.754 166.026 170.326 165.806 170.81 165.63C171.294 165.454 171.536 165.366 171.536 165.366L171.8 165.96L170.018 166.752C169.226 167.104 168.412 167.83 167.576 168.93C166.74 169.986 165.97 171.24 165.266 172.692C164.562 174.1 164.012 175.53 163.616 176.982C163.176 178.742 162.758 180.59 162.362 182.526C161.966 184.418 161.68 186.2 161.504 187.872C162.912 185.804 164.54 183.714 166.388 181.602C168.28 179.446 170.128 177.774 171.932 176.586L172.394 177.246C171.294 177.906 170.15 178.962 168.962 180.414C167.818 181.866 166.696 183.428 165.596 185.1C164.54 186.772 163.638 188.334 162.89 189.786C162.142 191.238 161.658 192.338 161.438 193.086L156.224 195.66Z" fill="white" fill-opacity="0.6"/>
    <path d="M199.315 194.736C198.479 194.736 197.599 194.714 196.675 194.67C195.795 194.582 194.893 194.494 193.969 194.406L193.771 194.142C193.683 193.57 193.793 192.844 194.101 191.964C194.365 191.04 194.673 190.094 195.025 189.126C195.157 188.774 195.355 188.246 195.619 187.542C195.883 186.794 196.147 186.068 196.411 185.364C196.675 184.616 196.851 184.11 196.939 183.846C197.071 183.406 197.181 183.01 197.269 182.658C197.357 182.306 197.401 181.91 197.401 181.47L198.127 182.262C198.039 182.658 197.973 183.076 197.929 183.516C197.885 183.912 197.863 184.308 197.863 184.704C197.863 186.596 198.391 188.246 199.447 189.654C200.547 191.018 202.109 191.7 204.133 191.7C205.673 191.7 207.059 191.37 208.291 190.71C209.567 190.006 210.579 189.126 211.327 188.07C212.075 186.97 212.449 185.87 212.449 184.77C212.449 184.242 212.339 183.692 212.119 183.12C211.723 182.108 210.777 181.404 209.281 181.008C207.829 180.612 206.333 180.37 204.793 180.282C202.109 180.062 200.085 179.446 198.721 178.434C197.401 177.422 196.741 176.234 196.741 174.87C196.741 173.638 197.291 172.34 198.391 170.976C198.699 170.58 199.315 170.096 200.239 169.524C201.163 168.908 202.197 168.27 203.341 167.61C204.485 166.95 205.585 166.356 206.641 165.828C207.697 165.256 208.489 164.86 209.017 164.64C209.589 164.376 210.249 164.2 210.997 164.112C211.789 163.98 212.603 163.914 213.439 163.914C214.627 163.914 215.727 164.024 216.739 164.244C217.751 164.42 218.323 164.618 218.455 164.838L218.719 165.102C218.807 165.674 218.719 166.356 218.455 167.148C218.235 167.896 217.949 168.754 217.597 169.722C217.421 170.206 217.223 170.69 217.003 171.174C216.827 171.658 216.673 172.12 216.541 172.56C216.233 173.308 216.079 174.1 216.079 174.936L214.891 174.21C215.111 173.418 215.221 172.736 215.221 172.164C215.221 170.932 214.913 169.876 214.297 168.996C213.681 168.116 212.911 167.456 211.987 167.016C211.063 166.532 210.139 166.334 209.215 166.422C207.235 166.642 205.629 167.368 204.397 168.6C203.209 169.832 202.615 171.086 202.615 172.362C202.615 173.374 203.055 174.298 203.935 175.134C204.859 175.926 206.333 176.366 208.357 176.454C208.885 176.454 209.699 176.52 210.799 176.652C211.899 176.784 212.955 176.938 213.967 177.114C214.979 177.29 215.639 177.51 215.947 177.774C217.003 178.566 217.531 179.534 217.531 180.678C217.531 181.91 216.981 183.274 215.881 184.77C214.825 186.266 213.637 187.784 212.317 189.324C210.557 191.436 208.577 192.866 206.377 193.614C204.177 194.362 201.823 194.736 199.315 194.736Z" fill="white" fill-opacity="0.6"/>
    <path d="M264.323 175.53L263.531 175.002C263.619 174.562 263.685 174.166 263.729 173.814C263.817 173.418 263.861 173.044 263.861 172.692C263.861 171.284 263.443 170.206 262.607 169.458C261.815 168.71 260.759 168.336 259.439 168.336C258.207 168.336 256.777 168.71 255.149 169.458L254.819 168.93C256.887 167.742 258.801 166.818 260.561 166.158C262.365 165.498 264.081 165.168 265.709 165.168H265.973C266.457 165.168 266.699 165.432 266.699 165.96C266.699 166.532 266.589 167.214 266.369 168.006C266.149 168.754 265.907 169.546 265.643 170.382C265.467 170.822 265.313 171.262 265.181 171.702C265.049 172.098 264.939 172.516 264.851 172.956C264.543 174.056 264.367 174.914 264.323 175.53ZM249.935 195.066C248.615 195.066 247.383 194.868 246.239 194.472C245.095 194.076 244.281 193.372 243.797 192.36C243.489 191.744 243.269 191.04 243.137 190.248C243.049 189.412 243.005 188.554 243.005 187.674C243.005 186.09 243.159 184.418 243.467 182.658C243.819 180.854 244.215 179.204 244.655 177.708C245.579 174.716 246.613 172.428 247.757 170.844C248.901 169.26 250.463 168.116 252.443 167.412C252.751 167.324 253.235 167.148 253.895 166.884C254.599 166.62 255.303 166.356 256.007 166.092C256.755 165.784 257.349 165.564 257.789 165.432L257.855 166.224L253.961 168.336C253.389 168.644 252.795 169.348 252.179 170.448C251.563 171.504 250.991 172.78 250.463 174.276C249.935 175.772 249.451 177.312 249.011 178.896L253.169 176.916C253.697 176.784 254.269 176.718 254.885 176.718C255.457 176.718 256.007 176.762 256.535 176.85C257.107 176.938 257.679 177.026 258.251 177.114C259.263 177.246 260.297 177.312 261.353 177.312C261.793 177.312 262.233 177.29 262.673 177.246C263.157 177.202 263.619 177.136 264.059 177.048L264.323 177.51L258.185 180.546C257.921 180.59 257.657 180.634 257.393 180.678C257.173 180.678 256.931 180.678 256.667 180.678C255.611 180.678 254.533 180.546 253.433 180.282C252.377 180.018 251.321 179.886 250.265 179.886C250.001 179.886 249.737 179.886 249.473 179.886C249.253 179.886 249.011 179.93 248.747 180.018C248.527 181.074 248.329 182.108 248.153 183.12C248.021 184.088 247.955 185.012 247.955 185.892C247.955 187.256 248.153 188.378 248.549 189.258C249.121 190.49 249.957 191.458 251.057 192.162C252.157 192.822 253.367 193.152 254.687 193.152C256.623 193.152 258.537 192.36 260.429 190.776C262.321 189.192 263.685 186.64 264.521 183.12L265.445 183.78C265.049 184.88 264.631 186.09 264.191 187.41C263.751 188.686 263.355 190.248 263.003 192.096C262.563 192.8 262.013 193.262 261.353 193.482C260.693 193.702 259.945 193.812 259.109 193.812C258.801 193.812 258.449 193.812 258.053 193.812C257.657 193.768 257.261 193.746 256.865 193.746C256.249 194.054 255.281 194.362 253.961 194.67C252.685 194.934 251.343 195.066 249.935 195.066Z" fill="white" fill-opacity="0.6"/>
    <path d="M292.546 195.66C292.942 193.152 293.426 190.534 293.998 187.806C294.614 185.034 295.142 182.394 295.582 179.886C295.934 177.994 296.22 176.234 296.44 174.606C296.704 172.978 296.836 171.614 296.836 170.514C296.836 170.162 296.836 169.832 296.836 169.524C296.836 169.216 296.792 168.952 296.704 168.732C296.704 168.732 296.264 168.864 295.384 169.128C294.548 169.392 293.47 169.92 292.15 170.712L292.546 169.392C293.382 168.908 294.35 168.336 295.45 167.676C296.594 167.016 297.716 166.356 298.816 165.696C299.916 164.992 300.818 164.376 301.522 163.848C301.742 164.156 301.874 164.574 301.918 165.102C302.006 165.63 302.05 166.246 302.05 166.95C302.05 168.138 301.94 169.524 301.72 171.108C301.544 172.648 301.302 174.32 300.994 176.124C300.818 177.356 300.598 178.588 300.334 179.82C300.07 181.052 299.828 182.306 299.608 183.582C300.4 182.13 301.412 180.612 302.644 179.028C303.876 177.4 305.218 175.816 306.67 174.276C308.122 172.736 309.596 171.328 311.092 170.052C312.632 168.776 314.084 167.742 315.448 166.95C316.504 166.378 317.736 165.828 319.144 165.3C320.552 164.772 321.806 164.288 322.906 163.848L323.236 164.442L322.246 164.838C321.19 165.278 320.222 166.158 319.342 167.478C318.462 168.754 317.648 170.294 316.9 172.098C316.196 173.902 315.558 175.794 314.986 177.774C314.458 179.754 314.018 181.646 313.666 183.45C313.314 185.21 313.05 186.684 312.874 187.872C314.282 185.804 315.932 183.692 317.824 181.536C319.716 179.38 321.564 177.708 323.368 176.52L323.896 177.18C323.104 177.664 322.114 178.544 320.926 179.82C319.782 181.096 318.616 182.548 317.428 184.176C316.24 185.804 315.206 187.41 314.326 188.994C313.446 190.578 312.94 191.92 312.808 193.02L307.594 195.66C307.55 195.396 307.528 195.132 307.528 194.868C307.528 194.56 307.528 194.252 307.528 193.944C307.528 192.36 307.682 190.512 307.99 188.4C308.342 186.244 308.76 184.044 309.244 181.8C309.772 179.556 310.344 177.422 310.96 175.398C311.62 173.374 312.236 171.68 312.808 170.316C311.928 171.02 310.872 172.032 309.64 173.352C308.452 174.628 307.198 176.102 305.878 177.774C304.602 179.446 303.37 181.206 302.182 183.054C301.038 184.858 300.07 186.662 299.278 188.466C298.486 190.226 297.98 191.832 297.76 193.284L292.546 195.66ZM320.464 160.68C319.672 160.68 318.946 160.438 318.286 159.954C317.626 159.47 316.988 159.008 316.372 158.568C315.756 158.084 315.096 157.842 314.392 157.842C313.292 157.842 312.39 158.722 311.686 160.482C311.642 160.702 311.444 160.834 311.092 160.878C310.74 160.878 310.586 160.79 310.63 160.614C310.762 160.042 311.026 159.316 311.422 158.436C311.818 157.512 312.346 156.698 313.006 155.994C313.71 155.29 314.48 154.938 315.316 154.938C316.196 154.938 316.966 155.202 317.626 155.73C318.286 156.214 318.924 156.698 319.54 157.182C320.156 157.666 320.816 157.908 321.52 157.908C322.004 157.908 322.444 157.688 322.84 157.248C323.236 156.764 323.566 156.17 323.83 155.466C323.962 155.07 324.226 154.872 324.622 154.872C324.886 154.872 324.996 155.026 324.952 155.334C324.776 155.95 324.49 156.698 324.094 157.578C323.698 158.414 323.192 159.14 322.576 159.756C322.004 160.372 321.3 160.68 320.464 160.68Z" fill="white" fill-opacity="0.6"/>
    <path d="M354.015 194.67C352.343 194.67 350.715 194.428 349.131 193.944C347.591 193.416 346.513 192.514 345.897 191.238C345.457 190.314 345.237 189.016 345.237 187.344C345.237 185.804 345.391 184.154 345.699 182.394C346.007 180.634 346.381 178.918 346.821 177.246C347.305 175.574 347.745 174.188 348.141 173.088C348.713 171.548 349.615 170.096 350.847 168.732C352.079 167.368 353.707 166.29 355.731 165.498C356.479 165.19 357.447 164.926 358.635 164.706C359.867 164.486 361.121 164.376 362.397 164.376C364.113 164.376 365.741 164.64 367.281 165.168C368.821 165.652 369.921 166.554 370.581 167.874C371.021 168.754 371.241 170.008 371.241 171.636C371.241 173.132 371.065 174.782 370.713 176.586C370.405 178.39 370.031 180.128 369.591 181.8C369.151 183.428 368.711 184.814 368.271 185.958C367.699 187.454 366.797 188.906 365.565 190.314C364.333 191.678 362.705 192.756 360.681 193.548C359.933 193.856 358.943 194.12 357.711 194.34C356.523 194.56 355.291 194.67 354.015 194.67ZM355.005 193.152C356.017 193.152 357.249 192.822 358.701 192.162C359.977 191.546 360.989 190.556 361.737 189.192C362.529 187.828 363.145 186.332 363.585 184.704C364.025 183.076 364.377 181.602 364.641 180.282C364.861 179.182 365.059 177.972 365.235 176.652C365.411 175.332 365.499 174.034 365.499 172.758C365.499 170.91 365.213 169.326 364.641 168.006C364.069 166.642 362.991 165.96 361.407 165.96C360.439 165.96 359.229 166.29 357.777 166.95C356.545 167.522 355.533 168.512 354.741 169.92C353.949 171.284 353.333 172.78 352.893 174.408C352.453 175.992 352.101 177.444 351.837 178.764C351.617 179.864 351.397 181.096 351.177 182.46C351.001 183.78 350.913 185.078 350.913 186.354C350.913 188.202 351.199 189.808 351.771 191.172C352.343 192.492 353.421 193.152 355.005 193.152Z" fill="white" fill-opacity="0.6"/>
    <path d="M156.486 270.198C154.33 270.198 152.262 269.868 150.282 269.208C148.346 268.548 146.762 267.47 145.53 265.974C144.298 264.478 143.682 262.498 143.682 260.034C143.682 259.462 143.704 258.868 143.748 258.252C143.836 257.636 143.968 256.998 144.144 256.338C145.024 252.422 145.86 248.528 146.652 244.656C147.444 240.74 148.17 236.846 148.83 232.974C148.962 232.094 148.808 231.346 148.368 230.73C147.928 230.07 147.4 229.696 146.784 229.608C146.344 229.52 145.596 229.454 144.54 229.41C143.528 229.366 142.516 229.344 141.504 229.344C140.536 229.3 139.876 229.3 139.524 229.344C139.304 229.344 139.194 229.256 139.194 229.08C139.194 228.904 139.304 228.728 139.524 228.552C139.744 228.332 139.964 228.222 140.184 228.222C141.944 228.222 143.99 228.266 146.322 228.354C148.698 228.442 150.898 228.486 152.922 228.486C153.45 228.486 153.956 228.486 154.44 228.486C154.924 228.486 155.386 228.464 155.826 228.42C156.574 228.376 157.652 228.354 159.06 228.354C160.468 228.31 161.876 228.244 163.284 228.156C163.636 228.156 163.812 228.354 163.812 228.75C163.812 228.926 163.768 229.08 163.68 229.212C163.592 229.3 163.438 229.322 163.218 229.278C161.502 229.19 160.16 229.256 159.192 229.476C158.224 229.696 157.454 230.224 156.882 231.06C156.354 231.896 155.804 233.216 155.232 235.02C154.704 236.824 154.176 238.848 153.648 241.092C153.12 243.292 152.614 245.536 152.13 247.824C151.69 250.068 151.272 252.224 150.876 254.292C150.524 256.36 150.216 258.12 149.952 259.572C149.908 259.88 149.864 260.166 149.82 260.43C149.82 260.694 149.82 260.958 149.82 261.222C149.82 263.378 150.524 265.028 151.932 266.172C153.34 267.316 154.946 267.932 156.75 268.02C156.882 268.02 157.146 268.042 157.542 268.086C157.982 268.086 158.422 268.086 158.862 268.086C159.302 268.042 159.566 268.02 159.654 268.02C161.546 267.932 163.372 267.294 165.132 266.106C166.892 264.918 168.058 263.136 168.63 260.76C169.334 257.944 170.038 254.842 170.742 251.454C171.446 248.022 172.106 244.612 172.722 241.224C173.382 237.792 173.954 234.69 174.438 231.918C174.57 231.082 174.394 230.466 173.91 230.07C173.47 229.63 173.052 229.366 172.656 229.278C172.348 229.19 172.062 229.146 171.798 229.146C171.534 229.146 171.292 229.146 171.072 229.146C170.852 229.146 170.632 229.146 170.412 229.146C170.192 229.146 169.95 229.168 169.686 229.212C169.466 229.212 169.356 229.146 169.356 229.014C169.356 228.838 169.466 228.662 169.686 228.486C169.95 228.266 170.17 228.156 170.346 228.156C171.754 228.244 172.788 228.31 173.448 228.354C174.152 228.398 174.9 228.42 175.692 228.42C176.088 228.42 176.528 228.42 177.012 228.42C177.496 228.376 178.09 228.354 178.794 228.354C179.454 228.354 180.422 228.354 181.698 228.354C182.974 228.31 184.382 228.288 185.922 228.288C187.462 228.244 188.936 228.222 190.344 228.222C190.476 228.222 190.542 228.266 190.542 228.354C190.542 228.53 190.432 228.772 190.212 229.08C189.992 229.344 189.794 229.454 189.618 229.41C187.638 229.366 186.054 229.498 184.866 229.806C183.722 230.114 182.798 230.796 182.094 231.852C181.434 232.908 180.818 234.558 180.246 236.802C179.806 238.386 179.3 240.476 178.728 243.072C178.156 245.624 177.606 248.198 177.078 250.794C176.858 252.158 176.638 253.588 176.418 255.084C176.242 256.58 175.956 258.076 175.56 259.572C174.856 262.388 173.756 264.566 172.26 266.106C170.764 267.646 168.916 268.724 166.716 269.34C164.56 269.912 162.074 270.198 159.258 270.198H156.486Z" fill="white" fill-opacity="0.2"/>
    <path d="M235.522 234.492L234.73 233.766C234.994 232.71 235.126 231.764 235.126 230.928C235.126 229.564 234.796 228.508 234.136 227.76C233.476 227.012 232.552 226.638 231.364 226.638C230.264 226.638 229.01 226.99 227.602 227.694L227.272 227.1C228.724 226.264 229.978 225.648 231.034 225.252C232.134 224.856 233.19 224.592 234.202 224.46C235.258 224.284 236.402 224.174 237.634 224.13L237.832 224.328C237.876 224.416 237.898 224.592 237.898 224.856C237.898 225.428 237.766 226.11 237.502 226.902C237.282 227.694 237.04 228.508 236.776 229.344C236.6 229.828 236.424 230.312 236.248 230.796C236.116 231.236 235.984 231.676 235.852 232.116C235.588 232.996 235.478 233.788 235.522 234.492ZM204.172 270.66C204.26 268.9 204.414 266.766 204.634 264.258C204.898 261.706 205.294 258.956 205.822 256.008C206.35 253.06 207.098 250.09 208.066 247.098C209.078 244.062 210.354 241.18 211.894 238.452C213.478 235.68 215.414 233.216 217.702 231.06C220.034 228.904 222.806 227.254 226.018 226.11L231.298 224.196L231.43 224.724C227.426 226.44 224.148 228.53 221.596 230.994C219.088 233.458 217.108 236.164 215.656 239.112C214.248 242.06 213.148 245.096 212.356 248.22C212.444 248.792 212.554 249.408 212.686 250.068C212.862 250.684 213.038 251.322 213.214 251.982C214.27 250.134 215.546 248.33 217.042 246.57C218.538 244.766 220.32 243.292 222.388 242.148C223.356 241.664 224.412 241.18 225.556 240.696C226.7 240.212 227.712 239.97 228.592 239.97C229.34 239.97 229.89 240.146 230.242 240.498C230.33 241.026 230.242 241.752 229.978 242.676C229.758 243.556 229.494 244.48 229.186 245.448L228.262 248.286C227.998 249.122 227.866 249.914 227.866 250.662L227.14 249.936C227.272 249.496 227.36 249.078 227.404 248.682C227.448 248.286 227.47 247.912 227.47 247.56C227.47 246.284 227.162 245.294 226.546 244.59C225.93 243.842 225.116 243.468 224.104 243.468C223.048 243.468 221.992 243.842 220.936 244.59C219.572 245.558 218.296 246.878 217.108 248.55C215.92 250.222 214.842 252.026 213.874 253.962C214.49 255.678 215.216 257.328 216.052 258.912C216.932 260.452 217.856 261.728 218.824 262.74C219.836 263.708 220.87 264.192 221.926 264.192C222.41 264.192 222.85 264.038 223.246 263.73C223.686 263.422 224.17 262.982 224.698 262.41C225.622 261.442 226.458 260.276 227.206 258.912C227.954 257.504 228.592 256.14 229.12 254.82C229.648 253.5 230 252.532 230.176 251.916L230.836 252.51C230.748 253.038 230.462 254.006 229.978 255.414C229.494 256.778 228.878 258.34 228.13 260.1C227.382 261.86 226.524 263.598 225.556 265.314C224.588 267.074 223.686 268.306 222.85 269.01C222.014 269.714 221.222 270.066 220.474 270.066C219.506 270.066 218.648 269.626 217.9 268.746C217.152 267.866 216.514 267.052 215.986 266.304C215.502 265.6 214.908 264.72 214.204 263.664C213.544 262.608 212.884 261.53 212.224 260.43C211.608 259.286 211.058 258.296 210.574 257.46C210.442 257.988 210.288 258.736 210.112 259.704C209.98 260.672 209.848 261.728 209.716 262.872C209.628 264.016 209.562 265.072 209.518 266.04C209.474 266.964 209.452 267.646 209.452 268.086C208.704 268.394 207.824 268.812 206.812 269.34C205.8 269.868 204.92 270.308 204.172 270.66Z" fill="white" fill-opacity="0.2"/>
    <path d="M253.701 270.726C254.009 268.218 254.339 265.732 254.691 263.268C255.087 260.76 255.439 258.406 255.747 256.206C255.923 254.93 256.055 253.72 256.143 252.576C256.231 251.388 256.275 250.31 256.275 249.342C256.275 248.726 256.253 248.154 256.209 247.626C256.165 247.098 256.077 246.636 255.945 246.24C255.769 246.284 255.571 246.372 255.351 246.504C255.175 246.636 254.999 246.746 254.823 246.834L253.899 247.296C253.547 247.472 253.371 247.56 253.371 247.56C253.151 247.648 253.041 247.582 253.041 247.362V247.296C253.041 247.12 253.107 246.922 253.239 246.702C253.415 246.438 253.547 246.284 253.635 246.24C254.867 245.492 256.055 244.7 257.199 243.864C258.343 243.028 259.465 242.192 260.565 241.356C260.873 241.796 261.071 242.478 261.159 243.402C261.291 244.326 261.357 245.426 261.357 246.702C261.357 248.77 261.225 251.146 260.961 253.83C260.697 256.514 260.388 259.132 260.036 261.684C260.96 260.936 261.841 259.858 262.677 258.45C263.557 257.042 264.349 255.568 265.053 254.028C265.801 252.488 266.395 251.168 266.835 250.068C267.583 248.264 268.441 246.834 269.409 245.778C270.377 244.722 271.631 243.93 273.171 243.402C273.391 243.314 273.787 243.182 274.359 243.006C274.975 242.786 275.613 242.544 276.273 242.28C276.933 242.016 277.504 241.796 277.988 241.62C278.472 241.444 278.715 241.356 278.715 241.356L278.979 241.95L277.197 242.742C275.965 243.27 275.019 244.304 274.359 245.844C273.743 247.384 273.303 249.144 273.039 251.124C272.819 253.06 272.708 254.974 272.708 256.866C272.708 258.098 272.731 259.286 272.775 260.43C272.863 261.53 272.929 262.454 272.973 263.202C273.677 262.586 274.578 261.596 275.678 260.232C276.778 258.868 277.879 257.372 278.979 255.744C280.123 254.072 281.134 252.51 282.014 251.058C282.894 249.562 283.489 248.418 283.797 247.626C284.281 246.394 284.721 245.206 285.117 244.062C285.557 242.918 286.084 241.928 286.701 241.092C287.317 240.256 288.131 239.662 289.143 239.31C289.363 239.222 289.847 239.068 290.595 238.848C291.387 238.584 292.245 238.32 293.169 238.056C294.093 237.748 294.885 237.484 295.545 237.264C296.249 237.044 296.6 236.934 296.6 236.934L296.865 237.528L295.017 238.32C294.577 238.496 293.741 239.266 292.509 240.63C291.321 241.95 289.913 243.622 288.285 245.646C286.657 247.626 284.984 249.76 283.268 252.048C281.596 254.336 279.991 256.58 278.451 258.78C276.955 260.936 275.701 262.85 274.689 264.522C273.721 266.194 273.149 267.382 272.973 268.086L267.693 270.726C267.869 267.47 267.912 264.324 267.824 261.288C267.78 258.252 267.913 255.524 268.221 253.104C266.769 255.084 265.361 257.086 263.997 259.11C262.633 261.134 261.489 262.938 260.565 264.522C259.685 266.106 259.156 267.294 258.98 268.086L253.701 270.726Z" fill="white" fill-opacity="0.2"/>
    <path d="M333.456 242.148C332.048 242.28 330.882 242.148 329.958 241.752C329.034 241.356 328 241.158 326.856 241.158C326.196 241.158 325.47 241.29 324.678 241.554L324.48 240.828C325.536 240.3 326.658 239.816 327.846 239.376C329.078 238.936 330.244 238.716 331.344 238.716C332.048 238.716 332.73 238.782 333.39 238.914C334.05 239.046 334.732 239.178 335.436 239.31C335.92 239.354 336.404 239.42 336.888 239.508C337.372 239.552 337.878 239.574 338.406 239.574C338.802 239.574 339.22 239.552 339.66 239.508C340.144 239.464 340.628 239.398 341.112 239.31L341.376 239.772C341.376 239.772 341.024 239.882 340.32 240.102C339.66 240.322 338.846 240.586 337.878 240.894C336.91 241.202 336.008 241.488 335.172 241.752C334.336 241.972 333.764 242.104 333.456 242.148ZM325.272 270.66C325.228 270.44 325.206 270.176 325.206 269.868C325.206 269.56 325.206 269.23 325.206 268.878C325.206 267.558 325.294 265.952 325.47 264.06C325.69 262.168 325.976 260.232 326.328 258.252C326.68 256.228 327.076 254.38 327.516 252.708C328.396 249.716 329.32 247.428 330.288 245.844C331.3 244.26 332.796 243.116 334.776 242.412C334.996 242.324 335.392 242.192 335.964 242.016C336.58 241.796 337.218 241.554 337.878 241.29C338.538 241.026 339.11 240.806 339.594 240.63C340.078 240.454 340.32 240.366 340.32 240.366L340.584 240.96L338.802 241.752C338.01 242.104 337.196 242.83 336.36 243.93C335.524 244.986 334.754 246.24 334.05 247.692C333.346 249.1 332.796 250.53 332.4 251.982C331.96 253.742 331.586 255.59 331.278 257.526C330.97 259.418 330.728 261.2 330.552 262.872C331.52 261.508 332.576 260.122 333.72 258.714C334.864 257.262 336.052 255.92 337.284 254.688C338.56 253.412 339.792 252.378 340.98 251.586L341.508 252.246C340.408 252.906 339.264 253.962 338.076 255.414C336.888 256.866 335.744 258.428 334.644 260.1C333.588 261.772 332.686 263.334 331.938 264.786C331.19 266.238 330.706 267.338 330.486 268.086L325.272 270.66ZM309.894 270.66C309.85 270.44 309.828 270.176 309.828 269.868C309.828 269.56 309.828 269.23 309.828 268.878C309.828 267.558 309.916 265.952 310.092 264.06C310.312 262.168 310.598 260.232 310.95 258.252C311.302 256.228 311.698 254.38 312.138 252.708C313.018 249.672 314.03 247.384 315.174 245.844C316.362 244.26 317.946 243.116 319.926 242.412C320.366 242.28 320.96 242.082 321.708 241.818C322.456 241.51 323.182 241.246 323.886 241.026L324.15 241.752L322.236 242.742C321.444 243.182 320.586 244.282 319.662 246.042C318.738 247.802 317.968 249.782 317.352 251.982C317 253.39 316.648 254.864 316.296 256.404C315.988 257.944 315.724 259.44 315.504 260.892C315.504 260.98 315.57 261.024 315.702 261.024C315.922 261.024 316.23 260.936 316.626 260.76C317.022 260.584 317.242 260.474 317.286 260.43C317.77 260.122 318.342 259.726 319.002 259.242C319.706 258.714 320.41 258.12 321.114 257.46C322.566 256.14 323.908 254.666 325.14 253.038C326.416 251.366 327.208 249.782 327.516 248.286C327.516 248.198 327.648 248.176 327.912 248.22C328.22 248.22 328.374 248.22 328.374 248.22C328.066 250.156 327.208 252.026 325.8 253.83C324.392 255.634 322.918 257.372 321.378 259.044C320.674 259.792 319.948 260.562 319.2 261.354C318.496 262.102 317.836 262.916 317.22 263.796C316.648 264.544 316.186 265.27 315.834 265.974C315.526 266.678 315.372 267.36 315.372 268.02L309.894 270.66Z" fill="white" fill-opacity="0.2"/>
    <path d="M393.012 234.492L392.22 233.766C392.484 232.71 392.616 231.764 392.616 230.928C392.616 229.564 392.286 228.508 391.626 227.76C390.966 227.012 390.042 226.638 388.854 226.638C387.754 226.638 386.5 226.99 385.092 227.694L384.762 227.1C386.214 226.264 387.468 225.648 388.524 225.252C389.624 224.856 390.68 224.592 391.692 224.46C392.748 224.284 393.892 224.174 395.124 224.13L395.322 224.328C395.366 224.416 395.388 224.592 395.388 224.856C395.388 225.428 395.256 226.11 394.992 226.902C394.772 227.694 394.53 228.508 394.266 229.344C394.09 229.828 393.914 230.312 393.738 230.796C393.606 231.236 393.474 231.676 393.342 232.116C393.078 232.996 392.968 233.788 393.012 234.492ZM361.662 270.66C361.75 268.9 361.904 266.766 362.124 264.258C362.388 261.706 362.784 258.956 363.312 256.008C363.84 253.06 364.588 250.09 365.556 247.098C366.568 244.062 367.844 241.18 369.384 238.452C370.968 235.68 372.904 233.216 375.192 231.06C377.524 228.904 380.296 227.254 383.508 226.11L388.788 224.196L388.92 224.724C384.916 226.44 381.638 228.53 379.086 230.994C376.578 233.458 374.598 236.164 373.146 239.112C371.738 242.06 370.638 245.096 369.846 248.22C369.934 248.792 370.044 249.408 370.176 250.068C370.352 250.684 370.528 251.322 370.704 251.982C371.76 250.134 373.036 248.33 374.532 246.57C376.028 244.766 377.81 243.292 379.878 242.148C380.846 241.664 381.902 241.18 383.046 240.696C384.19 240.212 385.202 239.97 386.082 239.97C386.83 239.97 387.38 240.146 387.732 240.498C387.82 241.026 387.732 241.752 387.468 242.676C387.248 243.556 386.984 244.48 386.676 245.448L385.752 248.286C385.488 249.122 385.356 249.914 385.356 250.662L384.63 249.936C384.762 249.496 384.85 249.078 384.894 248.682C384.938 248.286 384.96 247.912 384.96 247.56C384.96 246.284 384.652 245.294 384.036 244.59C383.42 243.842 382.606 243.468 381.594 243.468C380.538 243.468 379.482 243.842 378.426 244.59C377.062 245.558 375.786 246.878 374.598 248.55C373.41 250.222 372.332 252.026 371.364 253.962C371.98 255.678 372.706 257.328 373.542 258.912C374.422 260.452 375.346 261.728 376.314 262.74C377.326 263.708 378.36 264.192 379.416 264.192C379.9 264.192 380.34 264.038 380.736 263.73C381.176 263.422 381.66 262.982 382.188 262.41C383.112 261.442 383.948 260.276 384.696 258.912C385.444 257.504 386.082 256.14 386.61 254.82C387.138 253.5 387.49 252.532 387.666 251.916L388.326 252.51C388.238 253.038 387.952 254.006 387.468 255.414C386.984 256.778 386.368 258.34 385.62 260.1C384.872 261.86 384.014 263.598 383.046 265.314C382.078 267.074 381.176 268.306 380.34 269.01C379.504 269.714 378.712 270.066 377.964 270.066C376.996 270.066 376.138 269.626 375.39 268.746C374.642 267.866 374.004 267.052 373.476 266.304C372.992 265.6 372.398 264.72 371.694 263.664C371.034 262.608 370.374 261.53 369.714 260.43C369.098 259.286 368.548 258.296 368.064 257.46C367.932 257.988 367.778 258.736 367.602 259.704C367.47 260.672 367.338 261.728 367.206 262.872C367.118 264.016 367.052 265.072 367.008 266.04C366.964 266.964 366.942 267.646 366.942 268.086C366.194 268.394 365.314 268.812 364.302 269.34C363.29 269.868 362.41 270.308 361.662 270.66Z" fill="white" fill-opacity="0.2"/>
    <path d="M441.748 234.492L440.956 233.766C441.22 232.71 441.352 231.764 441.352 230.928C441.352 229.564 441.022 228.508 440.362 227.76C439.702 227.012 438.778 226.638 437.59 226.638C436.49 226.638 435.236 226.99 433.828 227.694L433.498 227.1C434.95 226.264 436.204 225.648 437.26 225.252C438.36 224.856 439.416 224.592 440.428 224.46C441.484 224.284 442.628 224.174 443.86 224.13L444.058 224.328C444.102 224.416 444.124 224.592 444.124 224.856C444.124 225.428 443.992 226.11 443.728 226.902C443.508 227.694 443.266 228.508 443.002 229.344C442.826 229.828 442.65 230.312 442.474 230.796C442.342 231.236 442.21 231.676 442.078 232.116C441.814 232.996 441.704 233.788 441.748 234.492ZM410.398 270.66C410.486 268.9 410.64 266.766 410.86 264.258C411.124 261.706 411.52 258.956 412.048 256.008C412.576 253.06 413.324 250.09 414.292 247.098C415.304 244.062 416.58 241.18 418.12 238.452C419.704 235.68 421.64 233.216 423.928 231.06C426.26 228.904 429.032 227.254 432.244 226.11L437.524 224.196L437.656 224.724C433.828 226.352 430.682 228.332 428.218 230.664C425.754 232.952 423.796 235.482 422.344 238.254C420.892 240.982 419.77 243.842 418.978 246.834C418.186 249.826 417.57 252.818 417.13 255.81C417.086 255.986 417.02 256.47 416.932 257.262C416.844 258.054 416.734 259 416.602 260.1C417.262 258.824 418.12 257.372 419.176 255.744C420.232 254.072 421.376 252.422 422.608 250.794C423.884 249.122 425.16 247.648 426.436 246.372C427.712 245.096 428.878 244.238 429.934 243.798C430.726 243.226 431.628 242.764 432.64 242.412C432.86 242.324 433.256 242.192 433.828 242.016C434.444 241.796 435.082 241.554 435.742 241.29C436.402 241.026 436.974 240.806 437.458 240.63C437.942 240.454 438.184 240.366 438.184 240.366L438.514 240.96L436.666 241.752C435.874 242.06 435.06 242.764 434.224 243.864C433.388 244.92 432.618 246.174 431.914 247.626C431.21 249.078 430.66 250.53 430.264 251.982C429.824 253.742 429.406 255.59 429.01 257.526C428.614 259.418 428.328 261.2 428.152 262.872C429.56 260.804 431.188 258.714 433.036 256.602C434.928 254.446 436.776 252.774 438.58 251.586L439.108 252.246C438.008 252.906 436.864 253.962 435.676 255.414C434.488 256.866 433.344 258.428 432.244 260.1C431.188 261.772 430.286 263.334 429.538 264.786C428.79 266.238 428.306 267.338 428.086 268.086L422.872 270.66C422.828 270.44 422.806 270.176 422.806 269.868C422.806 269.56 422.806 269.23 422.806 268.878C422.806 267.558 422.894 265.952 423.07 264.06C423.29 262.168 423.576 260.232 423.928 258.252C424.28 256.228 424.676 254.38 425.116 252.708C425.38 251.872 425.622 251.102 425.842 250.398C426.106 249.65 426.37 248.968 426.634 248.352C425.314 249.364 424.016 250.728 422.74 252.444C421.464 254.16 420.276 256.008 419.176 257.988C418.12 259.924 417.262 261.794 416.602 263.598C415.986 265.358 415.678 266.832 415.678 268.02V268.086C414.93 268.394 414.05 268.812 413.038 269.34C412.026 269.868 411.146 270.308 410.398 270.66Z" fill="white" fill-opacity="0.2"/>
    <path d="M482.825 242.148C481.417 242.28 480.251 242.148 479.327 241.752C478.403 241.356 477.369 241.158 476.225 241.158C475.565 241.158 474.839 241.29 474.047 241.554L473.849 240.828C474.905 240.3 476.027 239.816 477.215 239.376C478.447 238.936 479.613 238.716 480.713 238.716C481.417 238.716 482.099 238.782 482.759 238.914C483.419 239.046 484.101 239.178 484.805 239.31C485.289 239.354 485.773 239.42 486.257 239.508C486.741 239.552 487.247 239.574 487.775 239.574C488.171 239.574 488.589 239.552 489.029 239.508C489.513 239.464 489.997 239.398 490.481 239.31L490.745 239.772C490.745 239.772 490.393 239.882 489.689 240.102C489.029 240.322 488.215 240.586 487.247 240.894C486.279 241.202 485.377 241.488 484.541 241.752C483.705 241.972 483.133 242.104 482.825 242.148ZM474.641 270.66C474.597 270.44 474.575 270.176 474.575 269.868C474.575 269.56 474.575 269.23 474.575 268.878C474.575 267.558 474.663 265.952 474.839 264.06C475.059 262.168 475.345 260.232 475.697 258.252C476.049 256.228 476.445 254.38 476.885 252.708C477.765 249.716 478.689 247.428 479.657 245.844C480.669 244.26 482.165 243.116 484.145 242.412C484.365 242.324 484.761 242.192 485.333 242.016C485.949 241.796 486.587 241.554 487.247 241.29C487.907 241.026 488.479 240.806 488.963 240.63C489.447 240.454 489.689 240.366 489.689 240.366L489.953 240.96L488.171 241.752C487.379 242.104 486.565 242.83 485.729 243.93C484.893 244.986 484.123 246.24 483.419 247.692C482.715 249.1 482.165 250.53 481.769 251.982C481.329 253.742 480.955 255.59 480.647 257.526C480.339 259.418 480.097 261.2 479.921 262.872C480.889 261.508 481.945 260.122 483.089 258.714C484.233 257.262 485.421 255.92 486.653 254.688C487.929 253.412 489.161 252.378 490.349 251.586L490.877 252.246C489.777 252.906 488.633 253.962 487.445 255.414C486.257 256.866 485.113 258.428 484.013 260.1C482.957 261.772 482.055 263.334 481.307 264.786C480.559 266.238 480.075 267.338 479.855 268.086L474.641 270.66ZM459.263 270.66C459.219 270.44 459.197 270.176 459.197 269.868C459.197 269.56 459.197 269.23 459.197 268.878C459.197 267.558 459.285 265.952 459.461 264.06C459.681 262.168 459.967 260.232 460.319 258.252C460.671 256.228 461.067 254.38 461.507 252.708C462.387 249.672 463.399 247.384 464.543 245.844C465.731 244.26 467.315 243.116 469.295 242.412C469.735 242.28 470.329 242.082 471.077 241.818C471.825 241.51 472.551 241.246 473.255 241.026L473.519 241.752L471.605 242.742C470.813 243.182 469.955 244.282 469.031 246.042C468.107 247.802 467.337 249.782 466.721 251.982C466.369 253.39 466.017 254.864 465.665 256.404C465.357 257.944 465.093 259.44 464.873 260.892C464.873 260.98 464.939 261.024 465.071 261.024C465.291 261.024 465.599 260.936 465.995 260.76C466.391 260.584 466.611 260.474 466.655 260.43C467.139 260.122 467.711 259.726 468.371 259.242C469.075 258.714 469.779 258.12 470.483 257.46C471.935 256.14 473.277 254.666 474.509 253.038C475.785 251.366 476.577 249.782 476.885 248.286C476.885 248.198 477.017 248.176 477.281 248.22C477.589 248.22 477.743 248.22 477.743 248.22C477.435 250.156 476.577 252.026 475.169 253.83C473.761 255.634 472.287 257.372 470.747 259.044C470.043 259.792 469.317 260.562 468.569 261.354C467.865 262.102 467.205 262.916 466.589 263.796C466.017 264.544 465.555 265.27 465.203 265.974C464.895 266.678 464.741 267.36 464.741 268.02L459.263 270.66Z" fill="white" fill-opacity="0.2"/>
    <path d="M200.082 309.82C201.93 310.018 203.91 310.15 206.022 310.15C209.85 310.15 225.228 310.15 228.924 310.15C230.772 310.15 233.148 310.018 235.062 309.82V315.298C233.082 315.166 230.772 315.034 228.924 315.034C225.228 315.034 209.85 315.034 206.154 315.034C203.91 315.034 201.798 315.166 200.082 315.298V309.82ZM192.228 326.386C194.01 326.584 195.924 326.716 197.97 326.716C201.798 326.716 237.636 326.716 241.134 326.716C242.52 326.716 244.698 326.584 246.348 326.386V331.864C244.896 331.732 242.784 331.666 241.134 331.666C237.636 331.666 201.798 331.666 197.97 331.666C195.99 331.666 194.01 331.732 192.228 331.864V326.386ZM223.314 329.026C223.314 337.342 222.258 344.206 219.354 349.75C216.912 354.172 211.962 358.924 206.352 361.762L201.468 358.198C206.55 356.02 211.302 352.258 213.942 348.034C217.242 342.82 217.704 336.352 217.77 329.092L223.314 329.026ZM238.494 304.408C240.144 306.784 242.52 310.81 243.84 313.45L240.276 315.034C239.022 312.394 236.778 308.434 234.996 305.926L238.494 304.408ZM245.688 301.768C247.47 304.21 249.978 308.302 251.232 310.744L247.734 312.328C246.282 309.49 244.104 305.728 242.256 303.286L245.688 301.768Z" fill="white" fill-opacity="0.2"/>
    <path d="M327.66 307.708C328.914 310.084 330.63 314.176 331.554 316.816L328.254 317.938C327.33 315.166 325.812 311.206 324.492 308.698L327.66 307.708ZM334.26 305.662C335.514 308.104 337.23 312.13 338.22 314.77L334.92 315.892C333.864 312.922 332.412 309.16 331.026 306.652L334.26 305.662ZM321.39 328.894C321.39 346.45 317.628 355.492 302.58 362.224L298.092 358.066C310.104 353.446 316.11 347.77 316.11 329.29V313.252C316.11 310.678 315.912 308.5 315.78 307.84H321.72C321.654 308.5 321.39 310.678 321.39 313.252V328.894ZM297.63 308.302C297.564 308.896 297.3 310.744 297.3 313.054V337.276C297.3 339.652 297.498 342.556 297.564 343.216H291.757C291.823 342.556 292.02 339.784 292.02 337.276V313.054C292.02 311.668 291.955 309.754 291.757 308.302H297.63ZM278.292 321.106C278.886 321.172 282.12 321.502 284.958 321.502H328.65C331.554 321.502 333.799 321.304 334.723 321.172V326.782C333.997 326.65 331.554 326.584 328.65 326.584H284.958C282.054 326.584 279.084 326.716 278.292 326.782V321.106Z" fill="white" fill-opacity="0.2"/>
    <path d="M369.24 334.174C380.658 331.138 390.69 326.452 398.016 321.898C404.946 317.542 411.546 311.866 416.1 306.322L420.522 310.48C414.846 316.354 407.916 321.898 400.194 326.716C392.934 331.204 382.44 336.022 371.814 339.322L369.24 334.174ZM396.96 324.604L402.636 322.888V353.05C402.636 355.492 402.768 358.792 403.098 360.046H396.564C396.762 358.792 396.96 355.492 396.96 353.05V324.604Z" fill="white" fill-opacity="0.2"/>
    <path d="M466.986 309.688C471.606 312.79 480.12 319.654 483.75 323.284L479.658 327.508C476.292 324.076 468.108 316.948 463.158 313.714L466.986 309.688ZM461.31 353.908C472.794 352.192 481.375 348.166 487.645 344.272C497.875 337.87 505.86 328.102 509.688 319.918L512.857 325.594C508.369 333.778 500.712 342.754 490.746 349.024C484.08 353.182 475.764 357.274 464.742 359.32L461.31 353.908Z" fill="white" fill-opacity="0.2"/>
</svg>
