<svg width="529" height="353" viewBox="0 0 529 353" fill="none" xmlns="http://www.w3.org/2000/svg">
    <path d="M27.7862 42.736C26.0702 42.736 24.2222 42.626 22.2422 42.406C20.3062 42.186 18.0622 42.054 15.5102 42.01C15.2462 41.966 14.8502 41.944 14.3222 41.944C13.8382 41.944 13.2442 41.944 12.5402 41.944C11.6162 41.988 10.1202 42.032 8.05216 42.076C6.02816 42.12 3.98216 42.142 1.91416 42.142H0.660156L1.38616 41.02C1.38616 41.02 1.49616 41.02 1.71616 41.02C1.98016 41.02 2.15616 41.042 2.24416 41.086C3.12416 41.086 3.91616 41.108 4.62016 41.152C5.32416 41.152 5.96216 41.152 6.53416 41.152C7.76616 41.152 8.73416 41.086 9.43816 40.954C10.1422 40.778 10.7142 40.448 11.1542 39.964C11.5942 39.436 11.9682 38.666 12.2762 37.654C12.6282 36.642 13.0682 35.3 13.5962 33.628C14.3002 31.296 14.9382 28.92 15.5102 26.5C16.1262 24.036 16.6542 21.682 17.0942 19.438C17.5342 17.15 17.8862 15.126 18.1502 13.366C18.4142 11.562 18.5902 10.198 18.6782 9.274C18.7222 8.878 18.7662 8.416 18.8102 7.888C18.8982 7.36 18.9422 6.81 18.9422 6.238C18.9422 5.358 18.8102 4.566 18.5462 3.862C18.2822 3.158 17.7322 2.74 16.8962 2.608C16.5442 2.52 15.9502 2.476 15.1142 2.476C14.3222 2.432 13.4862 2.41 12.6062 2.41C11.7702 2.366 11.0442 2.344 10.4282 2.344H8.91016L9.57016 1.288L10.7582 1.222C11.2422 1.178 11.7262 1.156 12.2102 1.156C12.6942 1.156 13.1562 1.156 13.5962 1.156C15.4882 1.156 17.2922 1.222 19.0082 1.354C20.7682 1.442 22.4622 1.486 24.0902 1.486H25.4762C27.4122 1.486 29.3702 1.354 31.3502 1.09C33.3742 0.826 35.3322 0.694 37.2242 0.694C39.5122 0.694 41.6902 1.09 43.7582 1.882C45.8702 2.63 47.7842 4.17 49.5002 6.502C50.9082 8.394 51.8982 10.264 52.4702 12.112C53.0422 13.96 53.3282 15.786 53.3282 17.59C53.3282 20.626 52.6462 23.42 51.2822 25.972C49.9182 28.48 48.4002 30.504 46.7282 32.044L41.7122 36.664C39.0282 39.128 36.6082 40.756 34.4522 41.548C32.3402 42.34 30.1182 42.736 27.7862 42.736ZM28.0502 40.03C29.3702 40.03 30.6902 39.854 32.0102 39.502C33.3742 39.106 34.6282 38.644 35.7722 38.116C36.9162 37.588 37.7962 37.06 38.4122 36.532C41.0962 34.376 43.0762 31.846 44.3522 28.942C45.6722 26.038 46.3322 23.09 46.3322 20.098C46.3322 16.93 45.5842 13.916 44.0882 11.056C42.6362 8.196 40.4582 5.908 37.5542 4.192C36.7182 3.708 35.8602 3.334 34.9802 3.07C34.1002 2.762 33.2202 2.608 32.3402 2.608C31.1082 2.608 29.9642 2.938 28.9082 3.598C27.8962 4.214 27.0602 5.27 26.4002 6.766C25.6962 8.306 25.0582 10.154 24.4862 12.31C23.9582 14.422 23.4742 16.578 23.0342 18.778C22.5942 20.934 22.2202 22.914 21.9122 24.718C21.6482 26.478 21.4502 27.82 21.3182 28.744C21.0542 30.108 20.9222 31.34 20.9222 32.44C20.9222 35.3 21.6262 37.28 23.0342 38.38C24.4862 39.48 26.1582 40.03 28.0502 40.03Z" fill="white"/>
    <path d="M95.0876 23.53L94.2956 23.002C94.3836 22.562 94.4496 22.166 94.4936 21.814C94.5816 21.418 94.6256 21.044 94.6256 20.692C94.6256 19.284 94.2076 18.206 93.3716 17.458C92.5796 16.71 91.5236 16.336 90.2036 16.336C88.9716 16.336 87.5416 16.71 85.9136 17.458L85.5836 16.93C87.6516 15.742 89.5656 14.818 91.3256 14.158C93.1296 13.498 94.8456 13.168 96.4736 13.168H96.7376C97.2216 13.168 97.4636 13.432 97.4636 13.96C97.4636 14.532 97.3536 15.214 97.1336 16.006C96.9136 16.754 96.6716 17.546 96.4076 18.382C96.2316 18.822 96.0776 19.262 95.9456 19.702C95.8136 20.098 95.7036 20.516 95.6156 20.956C95.3076 22.056 95.1316 22.914 95.0876 23.53ZM80.6996 43.066C79.3796 43.066 78.1476 42.868 77.0036 42.472C75.8596 42.076 75.0456 41.372 74.5616 40.36C74.2536 39.744 74.0336 39.04 73.9016 38.248C73.8136 37.412 73.7696 36.554 73.7696 35.674C73.7696 34.09 73.9236 32.418 74.2316 30.658C74.5836 28.854 74.9796 27.204 75.4196 25.708C76.3436 22.716 77.3776 20.428 78.5216 18.844C79.6656 17.26 81.2276 16.116 83.2076 15.412C83.5156 15.324 83.9996 15.148 84.6596 14.884C85.3636 14.62 86.0676 14.356 86.7716 14.092C87.5196 13.784 88.1136 13.564 88.5536 13.432L88.6196 14.224L84.7256 16.336C84.1536 16.644 83.5596 17.348 82.9436 18.448C82.3276 19.504 81.7556 20.78 81.2276 22.276C80.6996 23.772 80.2156 25.312 79.7756 26.896L83.9336 24.916C84.4616 24.784 85.0336 24.718 85.6496 24.718C86.2216 24.718 86.7716 24.762 87.2996 24.85C87.8716 24.938 88.4436 25.026 89.0156 25.114C90.0276 25.246 91.0616 25.312 92.1176 25.312C92.5576 25.312 92.9976 25.29 93.4376 25.246C93.9216 25.202 94.3836 25.136 94.8236 25.048L95.0876 25.51L88.9496 28.546C88.6856 28.59 88.4216 28.634 88.1576 28.678C87.9376 28.678 87.6956 28.678 87.4316 28.678C86.3756 28.678 85.2976 28.546 84.1976 28.282C83.1416 28.018 82.0856 27.886 81.0296 27.886C80.7656 27.886 80.5016 27.886 80.2376 27.886C80.0176 27.886 79.7756 27.93 79.5116 28.018C79.2916 29.074 79.0936 30.108 78.9176 31.12C78.7856 32.088 78.7196 33.012 78.7196 33.892C78.7196 35.256 78.9176 36.378 79.3136 37.258C79.8856 38.49 80.7216 39.458 81.8216 40.162C82.9216 40.822 84.1316 41.152 85.4516 41.152C87.3876 41.152 89.3016 40.36 91.1936 38.776C93.0856 37.192 94.4496 34.64 95.2856 31.12L96.2096 31.78C95.8136 32.88 95.3956 34.09 94.9556 35.41C94.5156 36.686 94.1196 38.248 93.7676 40.096C93.3276 40.8 92.7776 41.262 92.1176 41.482C91.4576 41.702 90.7096 41.812 89.8736 41.812C89.5656 41.812 89.2136 41.812 88.8176 41.812C88.4216 41.768 88.0256 41.746 87.6296 41.746C87.0136 42.054 86.0456 42.362 84.7256 42.67C83.4496 42.934 82.1076 43.066 80.6996 43.066Z" fill="white"/>
    <path d="M125.555 42.736C124.719 42.736 123.839 42.714 122.915 42.67C122.035 42.582 121.133 42.494 120.209 42.406L120.011 42.142C119.923 41.57 120.033 40.844 120.341 39.964C120.605 39.04 120.913 38.094 121.265 37.126C121.397 36.774 121.595 36.246 121.859 35.542C122.123 34.794 122.387 34.068 122.651 33.364C122.915 32.616 123.091 32.11 123.179 31.846C123.311 31.406 123.421 31.01 123.509 30.658C123.597 30.306 123.641 29.91 123.641 29.47L124.367 30.262C124.279 30.658 124.213 31.076 124.169 31.516C124.125 31.912 124.103 32.308 124.103 32.704C124.103 34.596 124.631 36.246 125.687 37.654C126.787 39.018 128.349 39.7 130.373 39.7C131.913 39.7 133.299 39.37 134.531 38.71C135.807 38.006 136.819 37.126 137.567 36.07C138.315 34.97 138.689 33.87 138.689 32.77C138.689 32.242 138.579 31.692 138.359 31.12C137.963 30.108 137.017 29.404 135.521 29.008C134.069 28.612 132.573 28.37 131.033 28.282C128.349 28.062 126.325 27.446 124.961 26.434C123.641 25.422 122.981 24.234 122.981 22.87C122.981 21.638 123.531 20.34 124.631 18.976C124.939 18.58 125.555 18.096 126.479 17.524C127.403 16.908 128.437 16.27 129.581 15.61C130.725 14.95 131.825 14.356 132.881 13.828C133.937 13.256 134.729 12.86 135.257 12.64C135.829 12.376 136.489 12.2 137.237 12.112C138.029 11.98 138.843 11.914 139.679 11.914C140.867 11.914 141.967 12.024 142.979 12.244C143.991 12.42 144.563 12.618 144.695 12.838L144.959 13.102C145.047 13.674 144.959 14.356 144.695 15.148C144.475 15.896 144.189 16.754 143.837 17.722C143.661 18.206 143.463 18.69 143.243 19.174C143.067 19.658 142.913 20.12 142.781 20.56C142.473 21.308 142.319 22.1 142.319 22.936L141.131 22.21C141.351 21.418 141.461 20.736 141.461 20.164C141.461 18.932 141.153 17.876 140.537 16.996C139.921 16.116 139.151 15.456 138.227 15.016C137.303 14.532 136.379 14.334 135.455 14.422C133.475 14.642 131.869 15.368 130.637 16.6C129.449 17.832 128.855 19.086 128.855 20.362C128.855 21.374 129.295 22.298 130.175 23.134C131.099 23.926 132.573 24.366 134.597 24.454C135.125 24.454 135.939 24.52 137.039 24.652C138.139 24.784 139.195 24.938 140.207 25.114C141.219 25.29 141.879 25.51 142.187 25.774C143.243 26.566 143.771 27.534 143.771 28.678C143.771 29.91 143.221 31.274 142.121 32.77C141.065 34.266 139.877 35.784 138.557 37.324C136.797 39.436 134.817 40.866 132.617 41.614C130.417 42.362 128.063 42.736 125.555 42.736Z" fill="white"/>
    <path d="M179.343 12.112C178.815 12.112 178.287 12.046 177.759 11.914C177.275 11.738 176.725 11.496 176.109 11.188L178.881 7.492C179.233 7.668 179.717 7.756 180.333 7.756C181.301 7.756 182.401 7.558 183.633 7.162C184.865 6.722 185.987 6.15 186.999 5.446C187.351 4.874 187.747 4.588 188.187 4.588C188.451 4.588 188.583 4.72 188.583 4.984C188.583 5.16 188.451 5.446 188.187 5.842C187.923 6.238 187.417 6.766 186.669 7.426C185.965 8.042 185.195 8.702 184.359 9.406C183.567 10.066 182.885 10.638 182.313 11.122C181.741 11.562 181.455 11.782 181.455 11.782C181.059 11.87 180.685 11.958 180.333 12.046C180.025 12.09 179.695 12.112 179.343 12.112ZM168.981 43.66C168.937 43.44 168.915 43.198 168.915 42.934C168.915 42.626 168.915 42.318 168.915 42.01C168.915 40.646 169.003 39.018 169.179 37.126C169.399 35.234 169.685 33.276 170.037 31.252C170.433 29.228 170.851 27.38 171.291 25.708C172.171 22.716 173.139 20.428 174.195 18.844C175.251 17.26 176.769 16.116 178.749 15.412C178.969 15.324 179.365 15.192 179.937 15.016C180.553 14.796 181.191 14.554 181.851 14.29C182.511 14.026 183.083 13.806 183.567 13.63C184.051 13.454 184.293 13.366 184.293 13.366L184.557 13.96L182.775 14.752C181.983 15.104 181.169 15.83 180.333 16.93C179.497 17.986 178.727 19.24 178.023 20.692C177.319 22.1 176.769 23.53 176.373 24.982C175.933 26.742 175.515 28.59 175.119 30.526C174.723 32.418 174.437 34.2 174.261 35.872C175.669 33.804 177.297 31.714 179.145 29.602C181.037 27.446 182.885 25.774 184.689 24.586L185.151 25.246C184.051 25.906 182.907 26.962 181.719 28.414C180.575 29.866 179.453 31.428 178.353 33.1C177.297 34.772 176.395 36.334 175.647 37.786C174.899 39.238 174.415 40.338 174.195 41.086L168.981 43.66Z" fill="white"/>
    <path d="M231.938 15.016C230.75 15.016 229.562 14.884 228.374 14.62C227.23 14.356 226.064 14.224 224.876 14.224C224.084 14.224 223.358 14.312 222.698 14.488L222.434 13.762L226.988 12.112C227.604 11.98 228.22 11.914 228.836 11.914C229.452 11.914 230.09 11.958 230.75 12.046C231.41 12.134 232.026 12.222 232.598 12.31C233.17 12.354 233.742 12.42 234.314 12.508C234.93 12.552 235.546 12.574 236.162 12.574C236.646 12.574 237.108 12.552 237.548 12.508C238.032 12.42 238.516 12.332 239 12.244L239.33 12.706L233.588 14.884C233.28 14.928 232.994 14.972 232.73 15.016C232.466 15.016 232.202 15.016 231.938 15.016ZM207.782 43.66C207.738 43.44 207.716 43.198 207.716 42.934C207.716 42.626 207.716 42.318 207.716 42.01C207.716 40.646 207.804 39.018 207.98 37.126C208.2 35.234 208.486 33.276 208.838 31.252C209.234 29.228 209.652 27.38 210.092 25.708C210.972 22.672 211.984 20.384 213.128 18.844C214.316 17.26 215.922 16.116 217.946 15.412C218.342 15.28 218.98 15.038 219.86 14.686C220.784 14.334 221.598 14.048 222.302 13.828C222.302 13.828 222.346 13.938 222.434 14.158C222.566 14.378 222.544 14.532 222.368 14.62L220.454 15.544C219.926 15.808 219.332 16.424 218.672 17.392C218.056 18.316 217.462 19.46 216.89 20.824C216.362 22.144 215.9 23.53 215.504 24.982C215.152 26.39 214.8 27.864 214.448 29.404C214.14 30.944 213.876 32.44 213.656 33.892C213.656 33.98 213.7 34.024 213.788 34.024C214.008 34.024 214.294 33.936 214.646 33.76C214.998 33.584 215.196 33.474 215.24 33.43C215.724 33.122 216.296 32.726 216.956 32.242C217.66 31.714 218.364 31.12 219.068 30.46C220.52 29.14 221.884 27.666 223.16 26.038C224.436 24.366 225.206 22.782 225.47 21.286C225.47 21.198 225.602 21.176 225.866 21.22C226.174 21.22 226.328 21.22 226.328 21.22C226.02 23.156 225.162 25.026 223.754 26.83C222.346 28.634 220.872 30.372 219.332 32.044C218.628 32.792 217.902 33.562 217.154 34.354C216.45 35.102 215.79 35.916 215.174 36.796C214.602 37.544 214.14 38.27 213.788 38.974C213.48 39.678 213.326 40.36 213.326 41.02L207.782 43.66ZM210.62 56.068C210.532 55.76 210.554 55.496 210.686 55.276L212.996 55.078C213.612 55.034 214.47 54.638 215.57 53.89C216.67 53.186 217.77 52.24 218.87 51.052C219.97 49.864 220.806 48.566 221.378 47.158C221.73 46.366 221.972 45.684 222.104 45.112C222.28 44.54 222.434 43.836 222.566 43C222.742 42.164 222.962 40.976 223.226 39.436C223.49 37.94 223.798 36.29 224.15 34.486C224.502 32.682 224.854 30.878 225.206 29.074C225.602 27.27 225.976 25.686 226.328 24.322C226.944 21.902 227.582 20.164 228.242 19.108C228.902 18.052 229.914 17.304 231.278 16.864C231.586 16.776 232.202 16.578 233.126 16.27C234.05 15.918 234.996 15.566 235.964 15.214C236.976 14.818 237.702 14.554 238.142 14.422C238.142 14.422 238.186 14.532 238.274 14.752C238.406 14.972 238.384 15.126 238.208 15.214L235.436 16.732C234.996 16.996 234.534 17.304 234.05 17.656C233.61 18.008 233.28 18.404 233.06 18.844C232.136 20.428 231.454 22.342 231.014 24.586C230.574 26.83 230.112 29.514 229.628 32.638C229.364 34.178 229.1 35.696 228.836 37.192C228.616 38.688 228.396 40.074 228.176 41.35C227.956 42.582 227.714 43.726 227.45 44.782C227.186 45.882 226.878 46.784 226.526 47.488C226.218 48.148 225.668 48.918 224.876 49.798C224.084 50.678 223.138 51.558 222.038 52.438C220.982 53.318 219.86 54.066 218.672 54.682C217.528 55.342 216.428 55.738 215.372 55.87C214.932 55.914 214.206 55.958 213.194 56.002C212.226 56.09 211.368 56.112 210.62 56.068ZM209.036 57.52C207.628 57.52 206.396 57.388 205.34 57.124C204.284 56.904 203.184 56.574 202.04 56.134C201.204 55.87 200.786 55.496 200.786 55.012C200.786 54.748 200.852 54.462 200.984 54.154C201.204 53.67 201.534 53.142 201.974 52.57C202.37 51.998 202.788 51.426 203.228 50.854C203.58 50.458 203.91 50.062 204.218 49.666C204.526 49.27 204.812 48.896 205.076 48.544C205.604 47.84 205.956 47.114 206.132 46.366L206.66 47.422C205.604 49.006 205.076 50.48 205.076 51.844C205.076 53.252 205.692 54.396 206.924 55.276C208.112 56.2 209.85 56.64 212.138 56.596V57.322C211.038 57.454 210.004 57.52 209.036 57.52Z" fill="white"/>
    <path d="M259.531 43.66C259.927 41.152 260.411 38.534 260.983 35.806C261.599 33.034 262.127 30.394 262.567 27.886C262.919 25.994 263.205 24.234 263.425 22.606C263.689 20.978 263.821 19.614 263.821 18.514C263.821 18.162 263.821 17.832 263.821 17.524C263.821 17.216 263.777 16.952 263.689 16.732C263.689 16.732 263.249 16.864 262.369 17.128C261.533 17.392 260.455 17.92 259.135 18.712L259.531 17.392C260.367 16.908 261.335 16.336 262.435 15.676C263.579 15.016 264.701 14.356 265.801 13.696C266.901 12.992 267.803 12.376 268.507 11.848C268.727 12.156 268.859 12.574 268.903 13.102C268.991 13.63 269.035 14.246 269.035 14.95C269.035 16.138 268.925 17.524 268.705 19.108C268.529 20.648 268.287 22.32 267.979 24.124C267.803 25.356 267.583 26.588 267.319 27.82C267.055 29.052 266.813 30.306 266.593 31.582C267.385 30.13 268.397 28.612 269.629 27.028C270.861 25.4 272.203 23.816 273.655 22.276C275.107 20.736 276.581 19.328 278.077 18.052C279.617 16.776 281.069 15.742 282.433 14.95C283.489 14.378 284.721 13.828 286.129 13.3C287.537 12.772 288.791 12.288 289.891 11.848L290.221 12.442L289.231 12.838C288.175 13.278 287.207 14.158 286.327 15.478C285.447 16.754 284.633 18.294 283.885 20.098C283.181 21.902 282.543 23.794 281.971 25.774C281.443 27.754 281.003 29.646 280.651 31.45C280.299 33.21 280.035 34.684 279.859 35.872C281.267 33.804 282.917 31.692 284.809 29.536C286.701 27.38 288.549 25.708 290.353 24.52L290.881 25.18C290.089 25.664 289.099 26.544 287.911 27.82C286.767 29.096 285.601 30.548 284.413 32.176C283.225 33.804 282.191 35.41 281.311 36.994C280.431 38.578 279.925 39.92 279.793 41.02L274.579 43.66C274.535 43.396 274.513 43.132 274.513 42.868C274.513 42.56 274.513 42.252 274.513 41.944C274.513 40.36 274.667 38.512 274.975 36.4C275.327 34.244 275.745 32.044 276.229 29.8C276.757 27.556 277.329 25.422 277.945 23.398C278.605 21.374 279.221 19.68 279.793 18.316C278.913 19.02 277.857 20.032 276.625 21.352C275.437 22.628 274.183 24.102 272.863 25.774C271.587 27.446 270.355 29.206 269.167 31.054C268.023 32.858 267.055 34.662 266.263 36.466C265.471 38.226 264.965 39.832 264.745 41.284L259.531 43.66Z" fill="white"/>
    <path d="M62.0504 117.736C58.8384 117.736 55.8684 117.12 53.1404 115.888C50.4564 114.656 48.3004 112.874 46.6724 110.542C45.0444 108.21 44.2304 105.394 44.2304 102.094C44.2304 98.574 45.0664 95.23 46.7384 92.062C48.4544 88.894 50.8304 86.078 53.8664 83.614C56.9464 81.106 60.5764 79.148 64.7564 77.74C68.9364 76.288 73.4904 75.562 78.4184 75.562C79.2984 75.562 80.2664 75.672 81.3224 75.892C82.4224 76.068 83.3684 76.442 84.1604 77.014C84.9524 77.542 85.3484 78.334 85.3484 79.39C85.3484 79.698 85.2824 79.984 85.1504 80.248C85.0624 80.512 84.9744 80.776 84.8864 81.04C84.7104 81.744 84.4464 82.448 84.0944 83.152C83.7864 83.812 83.4784 84.472 83.1704 85.132C82.8624 85.88 82.5104 86.738 82.1144 87.706C81.7184 88.63 81.3444 89.598 80.9924 90.61L80.1344 90.016C80.1344 90.016 80.2664 89.664 80.5304 88.96C80.7944 88.256 81.0584 87.464 81.3224 86.584C81.6304 85.704 81.8064 85.022 81.8504 84.538C81.9384 83.35 81.6744 82.404 81.0584 81.7C80.4864 80.996 79.6944 80.468 78.6824 80.116C77.7144 79.764 76.6804 79.544 75.5804 79.456C74.4804 79.324 73.4684 79.258 72.5444 79.258C69.9044 79.258 67.3304 79.61 64.8224 80.314C62.3144 81.018 60.0484 82.118 58.0244 83.614C56.0004 85.066 54.3284 86.958 53.0084 89.29C51.7324 91.578 50.9844 94.35 50.7644 97.606C50.7644 97.826 50.7424 98.068 50.6984 98.332C50.6984 98.552 50.6984 98.772 50.6984 98.992C50.6984 101.764 51.2044 104.206 52.2164 106.318C53.2724 108.43 54.6144 110.212 56.2424 111.664C57.8704 113.116 59.6524 114.216 61.5884 114.964C63.5244 115.668 65.3724 116.02 67.1324 116.02C68.9364 116.02 70.5424 115.624 71.9504 114.832C73.3584 114.04 74.3044 112.852 74.7884 111.268C75.1404 110.036 75.4264 108.65 75.6464 107.11C75.9104 105.526 76.1744 104.118 76.4384 102.886C76.6144 102.05 76.4604 101.456 75.9764 101.104C75.5364 100.708 75.1184 100.488 74.7224 100.444C74.3704 100.4 73.7764 100.356 72.9404 100.312C72.1484 100.268 71.3124 100.246 70.4324 100.246C69.5964 100.202 68.8704 100.18 68.2544 100.18C68.0784 100.224 67.7704 100.246 67.3304 100.246C66.9344 100.246 66.7364 100.246 66.7364 100.246L67.3964 99.124C69.4644 99.168 71.5104 99.234 73.5344 99.322C75.6024 99.41 77.6484 99.454 79.6724 99.454C80.2444 99.454 81.1904 99.454 82.5104 99.454C83.8744 99.41 85.4804 99.366 87.3284 99.322C89.2204 99.234 91.2004 99.146 93.2684 99.058L92.5424 100.18C92.1024 100.136 91.6404 100.114 91.1564 100.114C90.7164 100.114 90.2984 100.114 89.9024 100.114H87.8564C86.8004 100.114 85.9644 100.29 85.3484 100.642C84.7764 100.994 84.2704 101.61 83.8304 102.49C83.4344 103.326 82.9504 104.514 82.3784 106.054C82.2024 106.538 81.9824 107.44 81.7184 108.76C81.4984 110.036 81.3004 111.422 81.1244 112.918C80.9484 114.37 80.8384 115.646 80.7944 116.746C80.7944 117.318 80.6404 117.604 80.3324 117.604C80.0684 117.604 79.7604 117.45 79.4084 117.142C79.1444 116.922 78.7484 116.768 78.2204 116.68C77.6924 116.592 77.0544 116.548 76.3064 116.548C74.9864 116.548 73.4244 116.658 71.6204 116.878C69.8604 117.054 68.1224 117.252 66.4064 117.472C64.7344 117.648 63.2824 117.736 62.0504 117.736Z" fill="white" fill-opacity="0.8"/>
    <path d="M131.768 98.53L130.976 98.002C131.064 97.562 131.13 97.166 131.174 96.814C131.262 96.418 131.306 96.044 131.306 95.692C131.306 94.284 130.888 93.206 130.052 92.458C129.26 91.71 128.204 91.336 126.884 91.336C125.652 91.336 124.222 91.71 122.594 92.458L122.264 91.93C124.332 90.742 126.246 89.818 128.006 89.158C129.81 88.498 131.526 88.168 133.154 88.168H133.418C133.902 88.168 134.144 88.432 134.144 88.96C134.144 89.532 134.034 90.214 133.814 91.006C133.594 91.754 133.352 92.546 133.088 93.382C132.912 93.822 132.758 94.262 132.626 94.702C132.494 95.098 132.384 95.516 132.296 95.956C131.988 97.056 131.812 97.914 131.768 98.53ZM117.38 118.066C116.06 118.066 114.828 117.868 113.684 117.472C112.54 117.076 111.726 116.372 111.242 115.36C110.934 114.744 110.714 114.04 110.582 113.248C110.494 112.412 110.45 111.554 110.45 110.674C110.45 109.09 110.604 107.418 110.912 105.658C111.264 103.854 111.66 102.204 112.1 100.708C113.024 97.716 114.058 95.428 115.202 93.844C116.346 92.26 117.908 91.116 119.888 90.412C120.196 90.324 120.68 90.148 121.34 89.884C122.044 89.62 122.748 89.356 123.452 89.092C124.2 88.784 124.794 88.564 125.234 88.432L125.3 89.224L121.406 91.336C120.834 91.644 120.24 92.348 119.624 93.448C119.008 94.504 118.436 95.78 117.908 97.276C117.38 98.772 116.896 100.312 116.456 101.896L120.614 99.916C121.142 99.784 121.714 99.718 122.33 99.718C122.902 99.718 123.452 99.762 123.98 99.85C124.552 99.938 125.124 100.026 125.696 100.114C126.708 100.246 127.742 100.312 128.798 100.312C129.238 100.312 129.678 100.29 130.118 100.246C130.602 100.202 131.064 100.136 131.504 100.048L131.768 100.51L125.63 103.546C125.366 103.59 125.102 103.634 124.838 103.678C124.618 103.678 124.376 103.678 124.112 103.678C123.056 103.678 121.978 103.546 120.878 103.282C119.822 103.018 118.766 102.886 117.71 102.886C117.446 102.886 117.182 102.886 116.918 102.886C116.698 102.886 116.456 102.93 116.192 103.018C115.972 104.074 115.774 105.108 115.598 106.12C115.466 107.088 115.4 108.012 115.4 108.892C115.4 110.256 115.598 111.378 115.994 112.258C116.566 113.49 117.402 114.458 118.502 115.162C119.602 115.822 120.812 116.152 122.132 116.152C124.068 116.152 125.982 115.36 127.874 113.776C129.766 112.192 131.13 109.64 131.966 106.12L132.89 106.78C132.494 107.88 132.076 109.09 131.636 110.41C131.196 111.686 130.8 113.248 130.448 115.096C130.008 115.8 129.458 116.262 128.798 116.482C128.138 116.702 127.39 116.812 126.554 116.812C126.246 116.812 125.894 116.812 125.498 116.812C125.102 116.768 124.706 116.746 124.31 116.746C123.694 117.054 122.726 117.362 121.406 117.67C120.13 117.934 118.788 118.066 117.38 118.066Z" fill="white" fill-opacity="0.8"/>
    <path d="M162.235 117.736C161.399 117.736 160.519 117.714 159.595 117.67C158.715 117.582 157.813 117.494 156.889 117.406L156.691 117.142C156.603 116.57 156.713 115.844 157.021 114.964C157.285 114.04 157.593 113.094 157.945 112.126C158.077 111.774 158.275 111.246 158.539 110.542C158.803 109.794 159.067 109.068 159.331 108.364C159.595 107.616 159.771 107.11 159.859 106.846C159.991 106.406 160.101 106.01 160.189 105.658C160.277 105.306 160.321 104.91 160.321 104.47L161.047 105.262C160.959 105.658 160.893 106.076 160.849 106.516C160.805 106.912 160.783 107.308 160.783 107.704C160.783 109.596 161.311 111.246 162.367 112.654C163.467 114.018 165.029 114.7 167.053 114.7C168.593 114.7 169.979 114.37 171.211 113.71C172.487 113.006 173.499 112.126 174.247 111.07C174.995 109.97 175.369 108.87 175.369 107.77C175.369 107.242 175.259 106.692 175.039 106.12C174.643 105.108 173.697 104.404 172.201 104.008C170.749 103.612 169.253 103.37 167.713 103.282C165.029 103.062 163.005 102.446 161.641 101.434C160.321 100.422 159.661 99.234 159.661 97.87C159.661 96.638 160.211 95.34 161.311 93.976C161.619 93.58 162.235 93.096 163.159 92.524C164.083 91.908 165.117 91.27 166.261 90.61C167.405 89.95 168.505 89.356 169.561 88.828C170.617 88.256 171.409 87.86 171.937 87.64C172.509 87.376 173.169 87.2 173.917 87.112C174.709 86.98 175.523 86.914 176.359 86.914C177.547 86.914 178.647 87.024 179.659 87.244C180.671 87.42 181.243 87.618 181.375 87.838L181.639 88.102C181.727 88.674 181.639 89.356 181.375 90.148C181.155 90.896 180.869 91.754 180.517 92.722C180.341 93.206 180.143 93.69 179.923 94.174C179.747 94.658 179.593 95.12 179.461 95.56C179.153 96.308 178.999 97.1 178.999 97.936L177.811 97.21C178.031 96.418 178.141 95.736 178.141 95.164C178.141 93.932 177.833 92.876 177.217 91.996C176.601 91.116 175.831 90.456 174.907 90.016C173.983 89.532 173.059 89.334 172.135 89.422C170.155 89.642 168.549 90.368 167.317 91.6C166.129 92.832 165.535 94.086 165.535 95.362C165.535 96.374 165.975 97.298 166.855 98.134C167.779 98.926 169.253 99.366 171.277 99.454C171.805 99.454 172.619 99.52 173.719 99.652C174.819 99.784 175.875 99.938 176.887 100.114C177.899 100.29 178.559 100.51 178.867 100.774C179.923 101.566 180.451 102.534 180.451 103.678C180.451 104.91 179.901 106.274 178.801 107.77C177.745 109.266 176.557 110.784 175.237 112.324C173.477 114.436 171.497 115.866 169.297 116.614C167.097 117.362 164.743 117.736 162.235 117.736Z" fill="white" fill-opacity="0.8"/>
    <path d="M205.266 118.66C205.178 115.976 205.354 113.094 205.794 110.014C206.234 106.934 206.85 103.854 207.642 100.774C208.434 97.694 209.358 94.812 210.414 92.128C210.018 92.128 209.644 92.128 209.292 92.128C208.94 92.084 208.588 92.04 208.236 91.996C206.828 91.908 205.684 91.996 204.804 92.26L204.54 91.534L209.16 89.884C209.512 89.796 209.886 89.73 210.282 89.686C210.678 89.642 211.074 89.62 211.47 89.62C212.526 87.156 213.626 85.066 214.77 83.35C215.958 81.634 217.058 80.556 218.07 80.116L225.528 76.948L225.726 77.41C223.438 78.774 221.48 80.512 219.852 82.624C218.268 84.736 216.926 87.068 215.826 89.62C216.838 89.664 217.85 89.708 218.862 89.752C219.918 89.796 220.952 89.818 221.964 89.818C223.284 89.818 224.604 89.752 225.924 89.62C227.244 89.488 228.52 89.202 229.752 88.762L230.148 89.158L224.01 91.798C222.91 92.106 221.788 92.304 220.644 92.392C219.544 92.48 218.444 92.524 217.344 92.524C216.904 92.524 216.464 92.524 216.024 92.524C215.584 92.524 215.144 92.502 214.704 92.458C213.648 95.45 212.834 98.574 212.262 101.83C211.734 105.086 211.294 108.21 210.942 111.202C211.91 109.794 213.01 108.342 214.242 106.846C215.474 105.35 216.75 103.964 218.07 102.688C219.434 101.412 220.71 100.378 221.898 99.586L222.426 100.246C221.326 100.906 220.16 101.984 218.928 103.48C217.696 104.932 216.508 106.516 215.364 108.232C214.264 109.948 213.296 111.554 212.46 113.05C211.668 114.502 211.162 115.602 210.942 116.35L205.266 118.66Z" fill="white" fill-opacity="0.8"/>
    <path d="M268.606 90.148C267.198 90.28 266.032 90.148 265.108 89.752C264.184 89.356 263.15 89.158 262.006 89.158C261.346 89.158 260.62 89.29 259.828 89.554L259.63 88.828C260.686 88.3 261.808 87.816 262.996 87.376C264.228 86.936 265.394 86.716 266.494 86.716C267.198 86.716 267.88 86.782 268.54 86.914C269.2 87.046 269.882 87.178 270.586 87.31C271.07 87.354 271.554 87.42 272.038 87.508C272.522 87.552 273.028 87.574 273.556 87.574C273.952 87.574 274.37 87.552 274.81 87.508C275.294 87.464 275.778 87.398 276.262 87.31L276.526 87.772C276.526 87.772 276.174 87.882 275.47 88.102C274.81 88.322 273.996 88.586 273.028 88.894C272.06 89.202 271.158 89.488 270.322 89.752C269.486 89.972 268.914 90.104 268.606 90.148ZM260.422 118.66C260.378 118.44 260.356 118.176 260.356 117.868C260.356 117.56 260.356 117.23 260.356 116.878C260.356 115.558 260.444 113.952 260.62 112.06C260.84 110.168 261.126 108.232 261.478 106.252C261.83 104.228 262.226 102.38 262.666 100.708C263.546 97.716 264.47 95.428 265.438 93.844C266.45 92.26 267.946 91.116 269.926 90.412C270.146 90.324 270.542 90.192 271.114 90.016C271.73 89.796 272.368 89.554 273.028 89.29C273.688 89.026 274.26 88.806 274.744 88.63C275.228 88.454 275.47 88.366 275.47 88.366L275.734 88.96L273.952 89.752C273.16 90.104 272.346 90.83 271.51 91.93C270.674 92.986 269.904 94.24 269.2 95.692C268.496 97.1 267.946 98.53 267.55 99.982C267.11 101.742 266.736 103.59 266.428 105.526C266.12 107.418 265.878 109.2 265.702 110.872C266.67 109.508 267.726 108.122 268.87 106.714C270.014 105.262 271.202 103.92 272.434 102.688C273.71 101.412 274.942 100.378 276.13 99.586L276.658 100.246C275.558 100.906 274.414 101.962 273.226 103.414C272.038 104.866 270.894 106.428 269.794 108.1C268.738 109.772 267.836 111.334 267.088 112.786C266.34 114.238 265.856 115.338 265.636 116.086L260.422 118.66ZM245.044 118.66C245 118.44 244.978 118.176 244.978 117.868C244.978 117.56 244.978 117.23 244.978 116.878C244.978 115.558 245.066 113.952 245.242 112.06C245.462 110.168 245.748 108.232 246.1 106.252C246.452 104.228 246.848 102.38 247.288 100.708C248.168 97.672 249.18 95.384 250.324 93.844C251.512 92.26 253.096 91.116 255.076 90.412C255.516 90.28 256.11 90.082 256.858 89.818C257.606 89.51 258.332 89.246 259.036 89.026L259.3 89.752L257.386 90.742C256.594 91.182 255.736 92.282 254.812 94.042C253.888 95.802 253.118 97.782 252.502 99.982C252.15 101.39 251.798 102.864 251.446 104.404C251.138 105.944 250.874 107.44 250.654 108.892C250.654 108.98 250.72 109.024 250.852 109.024C251.072 109.024 251.38 108.936 251.776 108.76C252.172 108.584 252.392 108.474 252.436 108.43C252.92 108.122 253.492 107.726 254.152 107.242C254.856 106.714 255.56 106.12 256.264 105.46C257.716 104.14 259.058 102.666 260.29 101.038C261.566 99.366 262.358 97.782 262.666 96.286C262.666 96.198 262.798 96.176 263.062 96.22C263.37 96.22 263.524 96.22 263.524 96.22C263.216 98.156 262.358 100.026 260.95 101.83C259.542 103.634 258.068 105.372 256.528 107.044C255.824 107.792 255.098 108.562 254.35 109.354C253.646 110.102 252.986 110.916 252.37 111.796C251.798 112.544 251.336 113.27 250.984 113.974C250.676 114.678 250.522 115.36 250.522 116.02L245.044 118.66Z" fill="white" fill-opacity="0.8"/>
    <path d="M298.065 118.66C298.241 117.252 298.461 115.426 298.725 113.182C299.033 110.938 299.429 108.452 299.913 105.724C300.397 102.996 300.969 100.18 301.629 97.276C302.289 94.372 303.059 91.556 303.939 88.828C304.863 86.1 305.897 83.636 307.041 81.436C308.229 79.192 309.527 77.388 310.935 76.024C312.387 74.616 313.993 73.802 315.753 73.582C316.061 73.538 316.633 73.428 317.469 73.252C318.305 73.032 319.097 72.834 319.845 72.658C320.593 72.438 320.967 72.328 320.967 72.328L321.033 72.79L319.449 73.714C317.425 74.902 315.621 76.618 314.037 78.862C312.453 81.062 311.067 83.57 309.879 86.386C308.691 89.158 307.657 92.04 306.777 95.032C305.941 98.024 305.237 100.906 304.665 103.678C304.137 106.406 303.697 108.804 303.345 110.872C304.753 108.804 306.381 106.714 308.229 104.602C310.121 102.446 311.969 100.774 313.773 99.586L314.301 100.246C313.201 100.906 312.057 101.962 310.869 103.414C309.681 104.866 308.537 106.428 307.437 108.1C306.381 109.772 305.479 111.334 304.731 112.786C303.983 114.238 303.499 115.338 303.279 116.086L298.065 118.66ZM326.247 82.69L325.521 81.964C325.785 80.908 325.917 79.984 325.917 79.192C325.917 77.784 325.565 76.706 324.861 75.958C324.201 75.21 323.277 74.836 322.089 74.836C321.033 74.836 319.801 75.166 318.393 75.826L318.063 75.298C319.515 74.462 320.769 73.846 321.825 73.45C322.925 73.054 323.981 72.79 324.993 72.658C326.005 72.482 327.127 72.372 328.359 72.328L328.557 72.526C328.601 72.614 328.623 72.812 328.623 73.12C328.623 73.692 328.513 74.374 328.293 75.166C328.073 75.958 327.831 76.75 327.567 77.542C327.391 78.026 327.215 78.51 327.039 78.994C326.863 79.434 326.731 79.874 326.643 80.314C326.511 80.754 326.401 81.172 326.313 81.568C326.225 81.92 326.203 82.294 326.247 82.69Z" fill="white" fill-opacity="0.8"/>
    <path d="M337.941 118.66C337.853 115.976 338.029 113.094 338.469 110.014C338.909 106.934 339.525 103.854 340.317 100.774C341.109 97.694 342.033 94.812 343.089 92.128C342.693 92.128 342.319 92.128 341.967 92.128C341.615 92.084 341.263 92.04 340.911 91.996C339.503 91.908 338.359 91.996 337.479 92.26L337.215 91.534L341.835 89.884C342.187 89.796 342.561 89.73 342.957 89.686C343.353 89.642 343.749 89.62 344.145 89.62C345.201 87.156 346.301 85.066 347.445 83.35C348.633 81.634 349.733 80.556 350.745 80.116L358.203 76.948L358.401 77.41C356.113 78.774 354.155 80.512 352.527 82.624C350.943 84.736 349.601 87.068 348.501 89.62C349.513 89.664 350.525 89.708 351.537 89.752C352.593 89.796 353.627 89.818 354.639 89.818C355.959 89.818 357.279 89.752 358.599 89.62C359.919 89.488 361.195 89.202 362.427 88.762L362.823 89.158L356.685 91.798C355.585 92.106 354.463 92.304 353.319 92.392C352.219 92.48 351.119 92.524 350.019 92.524C349.579 92.524 349.139 92.524 348.699 92.524C348.259 92.524 347.819 92.502 347.379 92.458C346.323 95.45 345.509 98.574 344.937 101.83C344.409 105.086 343.969 108.21 343.617 111.202C344.585 109.794 345.685 108.342 346.917 106.846C348.149 105.35 349.425 103.964 350.745 102.688C352.109 101.412 353.385 100.378 354.573 99.586L355.101 100.246C354.001 100.906 352.835 101.984 351.603 103.48C350.371 104.932 349.183 106.516 348.039 108.232C346.939 109.948 345.971 111.554 345.135 113.05C344.343 114.502 343.837 115.602 343.617 116.35L337.941 118.66Z" fill="white" fill-opacity="0.8"/>
    <path d="M377.125 119.254C377.873 116.966 378.599 114.546 379.303 111.994C380.007 109.442 380.623 106.934 381.151 104.47C381.723 101.962 382.141 99.63 382.405 97.474C382.713 95.274 382.823 93.404 382.735 91.864C382.295 92.04 381.657 92.348 380.821 92.788C380.029 93.184 379.435 93.448 379.039 93.58L379.435 92.26C380.139 91.996 381.019 91.6 382.075 91.072C383.131 90.544 384.209 89.972 385.309 89.356C386.409 88.696 387.355 88.102 388.147 87.574C388.235 87.838 388.279 88.19 388.279 88.63C388.279 89.642 388.125 91.138 387.817 93.118C387.553 95.054 387.201 97.21 386.761 99.586C386.321 101.918 385.837 104.272 385.309 106.648C384.825 108.98 384.341 111.048 383.857 112.852C386.101 111.224 387.949 109.442 389.401 107.506C390.897 105.526 392.151 103.414 393.163 101.17C394.219 98.926 395.209 96.572 396.133 94.108C396.749 92.48 397.541 91.204 398.509 90.28C399.521 89.356 400.731 88.652 402.139 88.168C402.359 88.08 402.755 87.948 403.327 87.772C403.943 87.552 404.581 87.31 405.241 87.046C405.901 86.782 406.473 86.562 406.957 86.386C407.441 86.21 407.683 86.122 407.683 86.122L407.947 86.914L406.165 87.706C404.845 88.278 403.679 89.466 402.667 91.27C401.655 93.03 400.797 95.12 400.093 97.54C399.389 99.916 398.839 102.38 398.443 104.932C398.047 107.44 397.827 109.75 397.783 111.862C398.355 110.894 399.103 109.794 400.027 108.562C400.995 107.33 402.007 106.12 403.063 104.932C404.163 103.7 405.219 102.622 406.231 101.698C407.287 100.73 408.167 100.026 408.871 99.586L409.333 100.246C407.925 101.302 406.605 102.6 405.373 104.14C404.141 105.636 403.041 107.176 402.073 108.76C401.105 110.344 400.291 111.796 399.631 113.116C399.015 114.392 398.597 115.36 398.377 116.02L393.097 118.66C392.965 118.396 392.899 117.67 392.899 116.482C392.899 115.514 392.943 114.392 393.031 113.116C393.119 111.796 393.207 110.498 393.295 109.222C393.427 107.946 393.559 106.846 393.691 105.922C393.823 104.998 393.933 104.426 394.021 104.206C393.185 105.306 392.195 106.516 391.051 107.836C389.907 109.156 388.741 110.432 387.553 111.664C386.409 112.852 385.397 113.908 384.517 114.832C383.637 115.712 383.021 116.284 382.669 116.548L377.125 119.254Z" fill="white" fill-opacity="0.8"/>
    <path d="M429.209 118.66C429.605 116.152 430.089 113.534 430.661 110.806C431.277 108.034 431.805 105.394 432.245 102.886C432.597 100.994 432.883 99.234 433.103 97.606C433.367 95.978 433.499 94.614 433.499 93.514C433.499 93.162 433.499 92.832 433.499 92.524C433.499 92.216 433.455 91.952 433.367 91.732C433.367 91.732 432.927 91.864 432.047 92.128C431.211 92.392 430.133 92.92 428.813 93.712L429.209 92.392C430.045 91.908 431.013 91.336 432.113 90.676C433.257 90.016 434.379 89.356 435.479 88.696C436.579 87.992 437.481 87.376 438.185 86.848C438.405 87.156 438.537 87.574 438.581 88.102C438.669 88.63 438.713 89.246 438.713 89.95C438.713 91.138 438.603 92.524 438.383 94.108C438.207 95.648 437.965 97.32 437.657 99.124C437.481 100.356 437.261 101.588 436.997 102.82C436.733 104.052 436.491 105.306 436.271 106.582C437.063 105.13 438.075 103.612 439.307 102.028C440.539 100.4 441.881 98.816 443.333 97.276C444.785 95.736 446.259 94.328 447.755 93.052C449.295 91.776 450.747 90.742 452.111 89.95C453.167 89.378 454.399 88.828 455.807 88.3C457.215 87.772 458.469 87.288 459.569 86.848L459.899 87.442L458.909 87.838C457.853 88.278 456.885 89.158 456.005 90.478C455.125 91.754 454.311 93.294 453.563 95.098C452.859 96.902 452.221 98.794 451.649 100.774C451.121 102.754 450.681 104.646 450.329 106.45C449.977 108.21 449.713 109.684 449.537 110.872C450.945 108.804 452.595 106.692 454.487 104.536C456.379 102.38 458.227 100.708 460.031 99.52L460.559 100.18C459.767 100.664 458.777 101.544 457.589 102.82C456.445 104.096 455.279 105.548 454.091 107.176C452.903 108.804 451.869 110.41 450.989 111.994C450.109 113.578 449.603 114.92 449.471 116.02L444.257 118.66C444.213 118.396 444.191 118.132 444.191 117.868C444.191 117.56 444.191 117.252 444.191 116.944C444.191 115.36 444.345 113.512 444.653 111.4C445.005 109.244 445.423 107.044 445.907 104.8C446.435 102.556 447.007 100.422 447.623 98.398C448.283 96.374 448.899 94.68 449.471 93.316C448.591 94.02 447.535 95.032 446.303 96.352C445.115 97.628 443.861 99.102 442.541 100.774C441.265 102.446 440.033 104.206 438.845 106.054C437.701 107.858 436.733 109.662 435.941 111.466C435.149 113.226 434.643 114.832 434.423 116.284L429.209 118.66Z" fill="white" fill-opacity="0.8"/>
    <path d="M505.793 90.016C504.605 90.016 503.417 89.884 502.229 89.62C501.085 89.356 499.919 89.224 498.731 89.224C497.939 89.224 497.213 89.312 496.553 89.488L496.289 88.762L500.843 87.112C501.459 86.98 502.075 86.914 502.691 86.914C503.307 86.914 503.945 86.958 504.605 87.046C505.265 87.134 505.881 87.222 506.453 87.31C507.025 87.354 507.597 87.42 508.169 87.508C508.785 87.552 509.401 87.574 510.017 87.574C510.501 87.574 510.963 87.552 511.403 87.508C511.887 87.42 512.371 87.332 512.855 87.244L513.185 87.706L507.443 89.884C507.135 89.928 506.849 89.972 506.585 90.016C506.321 90.016 506.057 90.016 505.793 90.016ZM481.637 118.66C481.593 118.44 481.571 118.198 481.571 117.934C481.571 117.626 481.571 117.318 481.571 117.01C481.571 115.646 481.659 114.018 481.835 112.126C482.055 110.234 482.341 108.276 482.693 106.252C483.089 104.228 483.507 102.38 483.947 100.708C484.827 97.672 485.839 95.384 486.983 93.844C488.171 92.26 489.777 91.116 491.801 90.412C492.197 90.28 492.835 90.038 493.715 89.686C494.639 89.334 495.453 89.048 496.157 88.828C496.157 88.828 496.201 88.938 496.289 89.158C496.421 89.378 496.399 89.532 496.223 89.62L494.309 90.544C493.781 90.808 493.187 91.424 492.527 92.392C491.911 93.316 491.317 94.46 490.745 95.824C490.217 97.144 489.755 98.53 489.359 99.982C489.007 101.39 488.655 102.864 488.303 104.404C487.995 105.944 487.731 107.44 487.511 108.892C487.511 108.98 487.555 109.024 487.643 109.024C487.863 109.024 488.149 108.936 488.501 108.76C488.853 108.584 489.051 108.474 489.095 108.43C489.579 108.122 490.151 107.726 490.811 107.242C491.515 106.714 492.219 106.12 492.923 105.46C494.375 104.14 495.739 102.666 497.015 101.038C498.291 99.366 499.061 97.782 499.325 96.286C499.325 96.198 499.457 96.176 499.721 96.22C500.029 96.22 500.183 96.22 500.183 96.22C499.875 98.156 499.017 100.026 497.609 101.83C496.201 103.634 494.727 105.372 493.187 107.044C492.483 107.792 491.757 108.562 491.009 109.354C490.305 110.102 489.645 110.916 489.029 111.796C488.457 112.544 487.995 113.27 487.643 113.974C487.335 114.678 487.181 115.36 487.181 116.02L481.637 118.66ZM484.475 131.068C484.387 130.76 484.409 130.496 484.541 130.276L486.851 130.078C487.467 130.034 488.325 129.638 489.425 128.89C490.525 128.186 491.625 127.24 492.725 126.052C493.825 124.864 494.661 123.566 495.233 122.158C495.585 121.366 495.827 120.684 495.959 120.112C496.135 119.54 496.289 118.836 496.421 118C496.597 117.164 496.817 115.976 497.081 114.436C497.345 112.94 497.653 111.29 498.005 109.486C498.357 107.682 498.709 105.878 499.061 104.074C499.457 102.27 499.831 100.686 500.183 99.322C500.799 96.902 501.437 95.164 502.097 94.108C502.757 93.052 503.769 92.304 505.133 91.864C505.441 91.776 506.057 91.578 506.981 91.27C507.905 90.918 508.851 90.566 509.819 90.214C510.831 89.818 511.557 89.554 511.997 89.422C511.997 89.422 512.041 89.532 512.129 89.752C512.261 89.972 512.239 90.126 512.063 90.214L509.291 91.732C508.851 91.996 508.389 92.304 507.905 92.656C507.465 93.008 507.135 93.404 506.915 93.844C505.991 95.428 505.309 97.342 504.869 99.586C504.429 101.83 503.967 104.514 503.483 107.638C503.219 109.178 502.955 110.696 502.691 112.192C502.471 113.688 502.251 115.074 502.031 116.35C501.811 117.582 501.569 118.726 501.305 119.782C501.041 120.882 500.733 121.784 500.381 122.488C500.073 123.148 499.523 123.918 498.731 124.798C497.939 125.678 496.993 126.558 495.893 127.438C494.837 128.318 493.715 129.066 492.527 129.682C491.383 130.342 490.283 130.738 489.227 130.87C488.787 130.914 488.061 130.958 487.049 131.002C486.081 131.09 485.223 131.112 484.475 131.068ZM482.891 132.52C481.483 132.52 480.251 132.388 479.195 132.124C478.139 131.904 477.039 131.574 475.895 131.134C475.059 130.87 474.641 130.496 474.641 130.012C474.641 129.748 474.707 129.462 474.839 129.154C475.059 128.67 475.389 128.142 475.829 127.57C476.225 126.998 476.643 126.426 477.083 125.854C477.435 125.458 477.765 125.062 478.073 124.666C478.381 124.27 478.667 123.896 478.931 123.544C479.459 122.84 479.811 122.114 479.987 121.366L480.515 122.422C479.459 124.006 478.931 125.48 478.931 126.844C478.931 128.252 479.547 129.396 480.779 130.276C481.967 131.2 483.705 131.64 485.993 131.596V132.322C484.893 132.454 483.859 132.52 482.891 132.52Z" fill="white" fill-opacity="0.8"/>
    <path d="M174.786 265.736C173.07 265.736 171.222 265.626 169.242 265.406C167.306 265.186 165.062 265.054 162.51 265.01C162.246 264.966 161.85 264.944 161.322 264.944C160.838 264.944 160.244 264.944 159.54 264.944C158.616 264.988 157.12 265.032 155.052 265.076C153.028 265.12 150.982 265.142 148.914 265.142H147.66L148.386 264.02C148.386 264.02 148.496 264.02 148.716 264.02C148.98 264.02 149.156 264.042 149.244 264.086C150.124 264.086 150.916 264.108 151.62 264.152C152.324 264.152 152.962 264.152 153.534 264.152C154.766 264.152 155.734 264.086 156.438 263.954C157.142 263.778 157.714 263.448 158.154 262.964C158.594 262.436 158.968 261.666 159.276 260.654C159.628 259.642 160.068 258.3 160.596 256.628C161.3 254.296 161.938 251.92 162.51 249.5C163.126 247.036 163.654 244.682 164.094 242.438C164.534 240.15 164.886 238.126 165.15 236.366C165.414 234.562 165.59 233.198 165.678 232.274C165.722 231.878 165.766 231.416 165.81 230.888C165.898 230.36 165.942 229.81 165.942 229.238C165.942 228.358 165.81 227.566 165.546 226.862C165.282 226.158 164.732 225.74 163.896 225.608C163.544 225.52 162.95 225.476 162.114 225.476C161.322 225.432 160.486 225.41 159.606 225.41C158.77 225.366 158.044 225.344 157.428 225.344H155.91L156.57 224.288L157.758 224.222C158.242 224.178 158.726 224.156 159.21 224.156C159.694 224.156 160.156 224.156 160.596 224.156C162.488 224.156 164.292 224.222 166.008 224.354C167.768 224.442 169.462 224.486 171.09 224.486H172.476C174.412 224.486 176.37 224.354 178.35 224.09C180.374 223.826 182.332 223.694 184.224 223.694C186.512 223.694 188.69 224.09 190.758 224.882C192.87 225.63 194.784 227.17 196.5 229.502C197.908 231.394 198.898 233.264 199.47 235.112C200.042 236.96 200.328 238.786 200.328 240.59C200.328 243.626 199.646 246.42 198.282 248.972C196.918 251.48 195.4 253.504 193.728 255.044L188.712 259.664C186.028 262.128 183.608 263.756 181.452 264.548C179.34 265.34 177.118 265.736 174.786 265.736ZM175.05 263.03C176.37 263.03 177.69 262.854 179.01 262.502C180.374 262.106 181.628 261.644 182.772 261.116C183.916 260.588 184.796 260.06 185.412 259.532C188.096 257.376 190.076 254.846 191.352 251.942C192.672 249.038 193.332 246.09 193.332 243.098C193.332 239.93 192.584 236.916 191.088 234.056C189.636 231.196 187.458 228.908 184.554 227.192C183.718 226.708 182.86 226.334 181.98 226.07C181.1 225.762 180.22 225.608 179.34 225.608C178.108 225.608 176.964 225.938 175.908 226.598C174.896 227.214 174.06 228.27 173.4 229.766C172.696 231.306 172.058 233.154 171.486 235.31C170.958 237.422 170.474 239.578 170.034 241.778C169.594 243.934 169.22 245.914 168.912 247.718C168.648 249.478 168.45 250.82 168.318 251.744C168.054 253.108 167.922 254.34 167.922 255.44C167.922 258.3 168.626 260.28 170.034 261.38C171.486 262.48 173.158 263.03 175.05 263.03Z" fill="white" fill-opacity="0.4"/>
    <path d="M230.868 235.112C230.34 235.112 229.812 235.046 229.284 234.914C228.8 234.738 228.25 234.496 227.634 234.188L230.406 230.492C230.758 230.668 231.242 230.756 231.858 230.756C232.826 230.756 233.926 230.558 235.158 230.162C236.39 229.722 237.512 229.15 238.524 228.446C238.876 227.874 239.272 227.588 239.712 227.588C239.976 227.588 240.108 227.72 240.108 227.984C240.108 228.16 239.976 228.446 239.712 228.842C239.448 229.238 238.942 229.766 238.194 230.426C237.49 231.042 236.72 231.702 235.884 232.406C235.092 233.066 234.41 233.638 233.838 234.122C233.266 234.562 232.98 234.782 232.98 234.782C232.584 234.87 232.21 234.958 231.858 235.046C231.55 235.09 231.22 235.112 230.868 235.112ZM220.506 266.66C220.462 266.44 220.44 266.198 220.44 265.934C220.44 265.626 220.44 265.318 220.44 265.01C220.44 263.646 220.528 262.018 220.704 260.126C220.924 258.234 221.21 256.276 221.562 254.252C221.958 252.228 222.376 250.38 222.816 248.708C223.696 245.716 224.664 243.428 225.72 241.844C226.776 240.26 228.294 239.116 230.274 238.412C230.494 238.324 230.89 238.192 231.462 238.016C232.078 237.796 232.716 237.554 233.376 237.29C234.036 237.026 234.608 236.806 235.092 236.63C235.576 236.454 235.818 236.366 235.818 236.366L236.082 236.96L234.3 237.752C233.508 238.104 232.694 238.83 231.858 239.93C231.022 240.986 230.252 242.24 229.548 243.692C228.844 245.1 228.294 246.53 227.898 247.982C227.458 249.742 227.04 251.59 226.644 253.526C226.248 255.418 225.962 257.2 225.786 258.872C227.194 256.804 228.822 254.714 230.67 252.602C232.562 250.446 234.41 248.774 236.214 247.586L236.676 248.246C235.576 248.906 234.432 249.962 233.244 251.414C232.1 252.866 230.978 254.428 229.878 256.1C228.822 257.772 227.92 259.334 227.172 260.786C226.424 262.238 225.94 263.338 225.72 264.086L220.506 266.66Z" fill="white" fill-opacity="0.4"/>
    <path d="M263.596 265.736C262.76 265.736 261.88 265.714 260.956 265.67C260.076 265.582 259.174 265.494 258.25 265.406L258.052 265.142C257.964 264.57 258.074 263.844 258.382 262.964C258.646 262.04 258.954 261.094 259.306 260.126C259.438 259.774 259.636 259.246 259.9 258.542C260.164 257.794 260.428 257.068 260.692 256.364C260.956 255.616 261.132 255.11 261.22 254.846C261.352 254.406 261.462 254.01 261.55 253.658C261.638 253.306 261.682 252.91 261.682 252.47L262.408 253.262C262.32 253.658 262.254 254.076 262.21 254.516C262.166 254.912 262.144 255.308 262.144 255.704C262.144 257.596 262.672 259.246 263.728 260.654C264.828 262.018 266.39 262.7 268.414 262.7C269.954 262.7 271.34 262.37 272.572 261.71C273.848 261.006 274.86 260.126 275.608 259.07C276.356 257.97 276.73 256.87 276.73 255.77C276.73 255.242 276.62 254.692 276.4 254.12C276.004 253.108 275.058 252.404 273.562 252.008C272.11 251.612 270.614 251.37 269.074 251.282C266.39 251.062 264.366 250.446 263.002 249.434C261.682 248.422 261.022 247.234 261.022 245.87C261.022 244.638 261.572 243.34 262.672 241.976C262.98 241.58 263.596 241.096 264.52 240.524C265.444 239.908 266.478 239.27 267.622 238.61C268.766 237.95 269.866 237.356 270.922 236.828C271.978 236.256 272.77 235.86 273.298 235.64C273.87 235.376 274.53 235.2 275.278 235.112C276.07 234.98 276.884 234.914 277.72 234.914C278.908 234.914 280.008 235.024 281.02 235.244C282.032 235.42 282.604 235.618 282.736 235.838L283 236.102C283.088 236.674 283 237.356 282.736 238.148C282.516 238.896 282.23 239.754 281.878 240.722C281.702 241.206 281.504 241.69 281.284 242.174C281.108 242.658 280.954 243.12 280.822 243.56C280.514 244.308 280.36 245.1 280.36 245.936L279.172 245.21C279.392 244.418 279.502 243.736 279.502 243.164C279.502 241.932 279.194 240.876 278.578 239.996C277.962 239.116 277.192 238.456 276.268 238.016C275.344 237.532 274.42 237.334 273.496 237.422C271.516 237.642 269.91 238.368 268.678 239.6C267.49 240.832 266.896 242.086 266.896 243.362C266.896 244.374 267.336 245.298 268.216 246.134C269.14 246.926 270.614 247.366 272.638 247.454C273.166 247.454 273.98 247.52 275.08 247.652C276.18 247.784 277.236 247.938 278.248 248.114C279.26 248.29 279.92 248.51 280.228 248.774C281.284 249.566 281.812 250.534 281.812 251.678C281.812 252.91 281.262 254.274 280.162 255.77C279.106 257.266 277.918 258.784 276.598 260.324C274.838 262.436 272.858 263.866 270.658 264.614C268.458 265.362 266.104 265.736 263.596 265.736Z" fill="white" fill-opacity="0.4"/>
    <path d="M328.604 246.53L327.812 246.002C327.9 245.562 327.966 245.166 328.01 244.814C328.098 244.418 328.142 244.044 328.142 243.692C328.142 242.284 327.724 241.206 326.888 240.458C326.096 239.71 325.04 239.336 323.72 239.336C322.488 239.336 321.058 239.71 319.43 240.458L319.1 239.93C321.168 238.742 323.082 237.818 324.842 237.158C326.646 236.498 328.362 236.168 329.99 236.168H330.254C330.738 236.168 330.98 236.432 330.98 236.96C330.98 237.532 330.87 238.214 330.65 239.006C330.43 239.754 330.188 240.546 329.924 241.382C329.748 241.822 329.594 242.262 329.462 242.702C329.33 243.098 329.22 243.516 329.132 243.956C328.824 245.056 328.648 245.914 328.604 246.53ZM314.216 266.066C312.896 266.066 311.664 265.868 310.52 265.472C309.376 265.076 308.562 264.372 308.078 263.36C307.77 262.744 307.55 262.04 307.418 261.248C307.33 260.412 307.286 259.554 307.286 258.674C307.286 257.09 307.44 255.418 307.748 253.658C308.1 251.854 308.496 250.204 308.936 248.708C309.86 245.716 310.894 243.428 312.038 241.844C313.182 240.26 314.744 239.116 316.724 238.412C317.032 238.324 317.516 238.148 318.176 237.884C318.88 237.62 319.584 237.356 320.288 237.092C321.036 236.784 321.63 236.564 322.07 236.432L322.136 237.224L318.242 239.336C317.67 239.644 317.076 240.348 316.46 241.448C315.844 242.504 315.272 243.78 314.744 245.276C314.216 246.772 313.732 248.312 313.292 249.896L317.45 247.916C317.978 247.784 318.55 247.718 319.166 247.718C319.738 247.718 320.288 247.762 320.816 247.85C321.388 247.938 321.96 248.026 322.532 248.114C323.544 248.246 324.578 248.312 325.634 248.312C326.074 248.312 326.514 248.29 326.954 248.246C327.438 248.202 327.9 248.136 328.34 248.048L328.604 248.51L322.466 251.546C322.202 251.59 321.938 251.634 321.674 251.678C321.454 251.678 321.212 251.678 320.948 251.678C319.892 251.678 318.814 251.546 317.714 251.282C316.658 251.018 315.602 250.886 314.546 250.886C314.282 250.886 314.018 250.886 313.754 250.886C313.534 250.886 313.292 250.93 313.028 251.018C312.808 252.074 312.61 253.108 312.434 254.12C312.302 255.088 312.236 256.012 312.236 256.892C312.236 258.256 312.434 259.378 312.83 260.258C313.402 261.49 314.238 262.458 315.338 263.162C316.438 263.822 317.648 264.152 318.968 264.152C320.904 264.152 322.818 263.36 324.71 261.776C326.602 260.192 327.966 257.64 328.802 254.12L329.726 254.78C329.33 255.88 328.912 257.09 328.472 258.41C328.032 259.686 327.636 261.248 327.284 263.096C326.844 263.8 326.294 264.262 325.634 264.482C324.974 264.702 324.226 264.812 323.39 264.812C323.082 264.812 322.73 264.812 322.334 264.812C321.938 264.768 321.542 264.746 321.146 264.746C320.53 265.054 319.562 265.362 318.242 265.67C316.966 265.934 315.624 266.066 314.216 266.066Z" fill="white" fill-opacity="0.4"/>
    <path d="M356.828 266.66C357.224 264.152 357.708 261.534 358.28 258.806C358.896 256.034 359.424 253.394 359.864 250.886C360.216 248.994 360.502 247.234 360.722 245.606C360.986 243.978 361.118 242.614 361.118 241.514C361.118 241.162 361.118 240.832 361.118 240.524C361.118 240.216 361.074 239.952 360.986 239.732C360.986 239.732 360.546 239.864 359.666 240.128C358.83 240.392 357.752 240.92 356.432 241.712L356.828 240.392C357.664 239.908 358.632 239.336 359.732 238.676C360.876 238.016 361.998 237.356 363.098 236.696C364.198 235.992 365.1 235.376 365.804 234.848C366.024 235.156 366.156 235.574 366.2 236.102C366.288 236.63 366.332 237.246 366.332 237.95C366.332 239.138 366.222 240.524 366.002 242.108C365.826 243.648 365.584 245.32 365.276 247.124C365.1 248.356 364.88 249.588 364.616 250.82C364.352 252.052 364.11 253.306 363.89 254.582C364.682 253.13 365.694 251.612 366.926 250.028C368.158 248.4 369.5 246.816 370.952 245.276C372.404 243.736 373.878 242.328 375.374 241.052C376.914 239.776 378.366 238.742 379.73 237.95C380.786 237.378 382.018 236.828 383.426 236.3C384.834 235.772 386.088 235.288 387.188 234.848L387.518 235.442L386.528 235.838C385.472 236.278 384.504 237.158 383.624 238.478C382.744 239.754 381.93 241.294 381.182 243.098C380.478 244.902 379.84 246.794 379.268 248.774C378.74 250.754 378.3 252.646 377.948 254.45C377.596 256.21 377.332 257.684 377.156 258.872C378.564 256.804 380.214 254.692 382.106 252.536C383.998 250.38 385.846 248.708 387.65 247.52L388.178 248.18C387.386 248.664 386.396 249.544 385.208 250.82C384.064 252.096 382.898 253.548 381.71 255.176C380.522 256.804 379.488 258.41 378.608 259.994C377.728 261.578 377.222 262.92 377.09 264.02L371.876 266.66C371.832 266.396 371.81 266.132 371.81 265.868C371.81 265.56 371.81 265.252 371.81 264.944C371.81 263.36 371.964 261.512 372.272 259.4C372.624 257.244 373.042 255.044 373.526 252.8C374.054 250.556 374.626 248.422 375.242 246.398C375.902 244.374 376.518 242.68 377.09 241.316C376.21 242.02 375.154 243.032 373.922 244.352C372.734 245.628 371.48 247.102 370.16 248.774C368.884 250.446 367.652 252.206 366.464 254.054C365.32 255.858 364.352 257.662 363.56 259.466C362.768 261.226 362.262 262.832 362.042 264.284L356.828 266.66ZM384.746 231.68C383.954 231.68 383.228 231.438 382.568 230.954C381.908 230.47 381.27 230.008 380.654 229.568C380.038 229.084 379.378 228.842 378.674 228.842C377.574 228.842 376.672 229.722 375.968 231.482C375.924 231.702 375.726 231.834 375.374 231.878C375.022 231.878 374.868 231.79 374.912 231.614C375.044 231.042 375.308 230.316 375.704 229.436C376.1 228.512 376.628 227.698 377.288 226.994C377.992 226.29 378.762 225.938 379.598 225.938C380.478 225.938 381.248 226.202 381.908 226.73C382.568 227.214 383.206 227.698 383.822 228.182C384.438 228.666 385.098 228.908 385.802 228.908C386.286 228.908 386.726 228.688 387.122 228.248C387.518 227.764 387.848 227.17 388.112 226.466C388.244 226.07 388.508 225.872 388.904 225.872C389.168 225.872 389.278 226.026 389.234 226.334C389.058 226.95 388.772 227.698 388.376 228.578C387.98 229.414 387.474 230.14 386.858 230.756C386.286 231.372 385.582 231.68 384.746 231.68Z" fill="white" fill-opacity="0.4"/>
    <path d="M418.297 265.67C416.625 265.67 414.997 265.428 413.413 264.944C411.873 264.416 410.795 263.514 410.179 262.238C409.739 261.314 409.519 260.016 409.519 258.344C409.519 256.804 409.673 255.154 409.981 253.394C410.289 251.634 410.663 249.918 411.103 248.246C411.587 246.574 412.027 245.188 412.423 244.088C412.995 242.548 413.897 241.096 415.129 239.732C416.361 238.368 417.989 237.29 420.013 236.498C420.761 236.19 421.729 235.926 422.917 235.706C424.149 235.486 425.403 235.376 426.679 235.376C428.395 235.376 430.023 235.64 431.563 236.168C433.103 236.652 434.203 237.554 434.863 238.874C435.303 239.754 435.523 241.008 435.523 242.636C435.523 244.132 435.347 245.782 434.995 247.586C434.687 249.39 434.313 251.128 433.873 252.8C433.433 254.428 432.993 255.814 432.553 256.958C431.981 258.454 431.079 259.906 429.847 261.314C428.615 262.678 426.987 263.756 424.963 264.548C424.215 264.856 423.225 265.12 421.993 265.34C420.805 265.56 419.573 265.67 418.297 265.67ZM419.287 264.152C420.299 264.152 421.531 263.822 422.983 263.162C424.259 262.546 425.271 261.556 426.019 260.192C426.811 258.828 427.427 257.332 427.867 255.704C428.307 254.076 428.659 252.602 428.923 251.282C429.143 250.182 429.341 248.972 429.517 247.652C429.693 246.332 429.781 245.034 429.781 243.758C429.781 241.91 429.495 240.326 428.923 239.006C428.351 237.642 427.273 236.96 425.689 236.96C424.721 236.96 423.511 237.29 422.059 237.95C420.827 238.522 419.815 239.512 419.023 240.92C418.231 242.284 417.615 243.78 417.175 245.408C416.735 246.992 416.383 248.444 416.119 249.764C415.899 250.864 415.679 252.096 415.459 253.46C415.283 254.78 415.195 256.078 415.195 257.354C415.195 259.202 415.481 260.808 416.053 262.172C416.625 263.492 417.703 264.152 419.287 264.152Z" fill="white" fill-opacity="0.4"/>
    <path d="M103.722 186.426L103.59 184.974H127.68L126.558 186.426V145.638L127.548 146.958L111.51 147.024L112.368 145.836C112.368 151.072 112.258 155.692 112.038 159.696C111.862 163.7 111.576 167.176 111.18 170.124C110.784 173.028 110.234 175.536 109.53 177.648C108.87 179.716 108.056 181.454 107.088 182.862C106.12 184.27 104.998 185.458 103.722 186.426ZM99.7622 185.832C101.082 184.644 102.204 183.324 103.128 181.872C104.052 180.376 104.822 178.638 105.438 176.658C106.054 174.678 106.538 172.302 106.89 169.53C107.286 166.758 107.572 163.48 107.748 159.696C107.924 155.868 108.034 151.402 108.078 146.298L109.134 147.288L102.336 146.1V143.262L112.302 142.932H137.646V145.77L131.046 147.288L131.97 146.034V186.426L130.98 184.974L138.966 185.172V200.682H135.666L133.554 188.472L134.214 189H101.346L101.94 188.472L99.7622 200.682H96.4622L96.5942 185.172L101.61 184.974L99.7622 185.832Z" fill="white" fill-opacity="0.6"/>
    <path d="M161.106 189V186.162L167.376 184.71L166.254 185.898V157.32L167.64 158.574L161.106 157.122V154.35L176.352 153.954V156.726L170.082 158.376L171.336 157.188V179.694L170.412 179.628L190.278 158.838L189.684 160.092L189.618 157.32L190.542 158.31L184.602 157.122V154.35L199.848 153.954V156.726L193.512 158.376L194.7 157.188V185.898L193.578 184.71L199.848 186.162V189H184.602V186.162L190.608 184.842L189.618 185.898V162.666L190.476 163.128L170.676 184.182L171.336 182.994V185.898L170.808 185.04L176.352 186.162V189H161.106Z" fill="white" fill-opacity="0.6"/>
    <path d="M233.517 189.594C231.493 189.594 229.469 189.352 227.445 188.868C225.421 188.384 223.551 187.658 221.835 186.69L223.089 183.258C224.629 184.094 226.279 184.754 228.039 185.238C229.843 185.678 231.581 185.898 233.253 185.898C234.969 185.898 236.553 185.656 238.005 185.172C239.501 184.688 240.689 183.94 241.569 182.928C242.449 181.916 242.889 180.596 242.889 178.968C242.889 177.736 242.581 176.636 241.965 175.668C241.349 174.7 240.315 173.93 238.863 173.358C237.455 172.786 235.541 172.5 233.121 172.5H228.765V169.2H233.121C236.289 169.2 238.599 168.65 240.051 167.55C241.503 166.406 242.229 164.888 242.229 162.996C242.229 160.884 241.459 159.388 239.919 158.508C238.423 157.628 236.531 157.188 234.243 157.188C232.967 157.188 231.647 157.298 230.283 157.518C228.919 157.738 227.533 158.024 226.125 158.376L227.379 157.056L226.521 163.392H223.023L222.759 155.538C224.871 154.922 226.961 154.438 229.029 154.086C231.141 153.734 233.165 153.558 235.101 153.558C237.433 153.558 239.545 153.866 241.437 154.482C243.329 155.054 244.803 156 245.859 157.32C246.959 158.596 247.509 160.268 247.509 162.336C247.509 164.888 246.673 166.868 245.001 168.276C243.373 169.64 240.799 170.52 237.279 170.916L237.147 170.454C241.063 170.63 243.901 171.51 245.661 173.094C247.465 174.634 248.367 176.658 248.367 179.166C248.367 181.542 247.663 183.522 246.255 185.106C244.847 186.646 243.021 187.79 240.777 188.538C238.533 189.242 236.113 189.594 233.517 189.594Z" fill="white" fill-opacity="0.6"/>
    <path d="M298.673 186.03L297.815 184.842L303.887 186.03V188.934L294.647 189.33L293.855 182.994L294.317 183.192C292.381 185.304 290.291 186.91 288.047 188.01C285.803 189.066 283.625 189.594 281.513 189.594C278.961 189.594 276.805 188.78 275.045 187.152C273.285 185.524 272.405 183.06 272.405 179.76C272.405 177.164 272.955 175.184 274.055 173.82C275.155 172.412 276.673 171.422 278.609 170.85C280.545 170.278 282.789 169.992 285.341 169.992H293.987L293.393 170.652V164.316C293.393 161.896 292.755 160.18 291.479 159.168C290.203 158.112 288.443 157.584 286.199 157.584C285.011 157.584 283.735 157.716 282.371 157.98C281.051 158.2 279.643 158.574 278.147 159.102L278.939 158.244L278.279 164.25H274.781L274.253 156.066C276.761 155.23 279.115 154.614 281.315 154.218C283.515 153.778 285.539 153.558 287.387 153.558C290.907 153.558 293.657 154.35 295.637 155.934C297.661 157.474 298.673 159.96 298.673 163.392V186.03ZM277.751 179.298C277.751 181.454 278.257 183.038 279.269 184.05C280.325 185.062 281.645 185.568 283.229 185.568C284.769 185.568 286.463 185.106 288.311 184.182C290.203 183.214 292.029 181.916 293.789 180.288L293.393 181.674V172.83L293.987 173.424H286.133C283.009 173.424 280.831 173.908 279.599 174.876C278.367 175.8 277.751 177.274 277.751 179.298Z" fill="white" fill-opacity="0.6"/>
    <path d="M324.799 189V186.162L331.069 184.71L329.947 185.898V157.32L331.333 158.574L324.799 157.122V154.35L340.045 153.954V156.726L333.775 158.376L335.029 157.188V179.694L334.105 179.628L353.971 158.838L353.377 160.092L353.311 157.32L354.235 158.31L348.295 157.122V154.35L363.541 153.954V156.726L357.205 158.376L358.393 157.188V185.898L357.271 184.71L363.541 186.162V189H348.295V186.162L354.301 184.842L353.311 185.898V162.666L354.169 163.128L334.369 184.182L335.029 182.994V185.898L334.501 185.04L340.045 186.162V189H324.799ZM344.203 146.694C342.487 146.694 340.881 146.408 339.385 145.836C337.933 145.264 336.745 144.384 335.821 143.196C334.897 142.008 334.369 140.468 334.237 138.576L339.319 138.246C339.451 140.138 340.045 141.524 341.101 142.404C342.201 143.24 343.499 143.658 344.995 143.658C346.447 143.658 347.657 143.24 348.625 142.404C349.593 141.568 350.055 140.248 350.011 138.444L354.037 138.246C354.037 140.182 353.575 141.788 352.651 143.064C351.771 144.296 350.583 145.22 349.087 145.836C347.635 146.408 346.007 146.694 344.203 146.694Z" fill="white" fill-opacity="0.6"/>
    <path d="M385.594 189V186.162L391.864 184.71L390.742 186.426V156.858L392.128 158.574L385.594 157.122V154.35L401.038 153.954V156.726L394.768 158.376L396.022 156.792V170.256L394.57 168.804H415.426L413.908 170.256V156.858L414.832 158.31L408.892 157.122V154.35L424.402 153.954V156.726L418.066 158.376L419.188 156.792V186.426L418.066 184.71L424.402 186.162V189H408.892V186.162L414.898 184.842L413.908 186.426V171.312L415.426 172.764H394.57L396.022 171.312V186.426L395.032 184.842L401.038 186.162V189H385.594Z" fill="white" fill-opacity="0.6"/>
    <path d="M215.398 299.82C217.246 300.018 219.226 300.15 221.338 300.15C225.166 300.15 240.544 300.15 244.24 300.15C246.088 300.15 248.464 300.018 250.378 299.82V305.298C248.398 305.166 246.088 305.034 244.24 305.034C240.544 305.034 225.166 305.034 221.47 305.034C219.226 305.034 217.114 305.166 215.398 305.298V299.82ZM207.544 316.386C209.326 316.584 211.24 316.716 213.286 316.716C217.114 316.716 252.952 316.716 256.45 316.716C257.836 316.716 260.014 316.584 261.664 316.386V321.864C260.212 321.732 258.1 321.666 256.45 321.666C252.952 321.666 217.114 321.666 213.286 321.666C211.306 321.666 209.326 321.732 207.544 321.864V316.386ZM238.63 319.026C238.63 327.342 237.574 334.206 234.67 339.75C232.228 344.172 227.278 348.924 221.668 351.762L216.784 348.198C221.866 346.02 226.618 342.258 229.258 338.034C232.558 332.82 233.02 326.352 233.086 319.092L238.63 319.026ZM253.81 294.408C255.46 296.784 257.836 300.81 259.156 303.45L255.592 305.034C254.338 302.394 252.094 298.434 250.312 295.926L253.81 294.408ZM261.004 291.768C262.786 294.21 265.294 298.302 266.548 300.744L263.05 302.328C261.598 299.49 259.42 295.728 257.572 293.286L261.004 291.768Z" fill="white" fill-opacity="0.2"/>
    <path d="M342.976 297.708C344.23 300.084 345.946 304.176 346.87 306.816L343.57 307.938C342.646 305.166 341.128 301.206 339.808 298.698L342.976 297.708ZM349.576 295.662C350.83 298.104 352.546 302.13 353.536 304.77L350.236 305.892C349.18 302.922 347.728 299.16 346.342 296.652L349.576 295.662ZM336.706 318.894C336.706 336.45 332.944 345.492 317.896 352.224L313.408 348.066C325.42 343.446 331.426 337.77 331.426 319.29V303.252C331.426 300.678 331.228 298.5 331.096 297.84H337.036C336.97 298.5 336.706 300.678 336.706 303.252V318.894ZM312.946 298.302C312.88 298.896 312.616 300.744 312.616 303.054V327.276C312.616 329.652 312.814 332.556 312.88 333.216H307.072C307.138 332.556 307.336 329.784 307.336 327.276V303.054C307.336 301.668 307.27 299.754 307.072 298.302H312.946ZM293.608 311.106C294.202 311.172 297.436 311.502 300.274 311.502H343.966C346.87 311.502 349.114 311.304 350.038 311.172V316.782C349.312 316.65 346.87 316.584 343.966 316.584H300.274C297.37 316.584 294.4 316.716 293.608 316.782V311.106Z" fill="white" fill-opacity="0.2"/>
    <path d="M384.556 324.174C395.974 321.138 406.006 316.452 413.332 311.898C420.262 307.542 426.862 301.866 431.416 296.322L435.838 300.48C430.162 306.354 423.232 311.898 415.51 316.716C408.25 321.204 397.756 326.022 387.13 329.322L384.556 324.174ZM412.276 314.604L417.952 312.888V343.05C417.952 345.492 418.084 348.792 418.414 350.046H411.88C412.078 348.792 412.276 345.492 412.276 343.05V314.604Z" fill="white" fill-opacity="0.2"/>
    <path d="M482.302 299.688C486.922 302.79 495.436 309.654 499.066 313.284L494.974 317.508C491.608 314.076 483.424 306.948 478.474 303.714L482.302 299.688ZM476.626 343.908C488.11 342.192 496.69 338.166 502.96 334.272C513.19 327.87 521.176 318.102 525.004 309.918L528.172 315.594C523.684 323.778 516.028 332.754 506.062 339.024C499.396 343.182 491.08 347.274 480.058 349.32L476.626 343.908Z" fill="white" fill-opacity="0.2"/>
</svg>
