<svg width="515" height="285" viewBox="0 0 515 285" fill="none" xmlns="http://www.w3.org/2000/svg">
    <path d="M107.5 45.1998H275.2V78.1998H107.5V45.1998ZM112.9 114.2H241V146.9H112.9V114.2ZM172.3 2.2998H207.7V131.9H172.3V2.2998ZM151.9 140.3C173.5 195.8 219.1 236.6 286.9 253.4C279.1 260.6 268.9 275 264.1 284.3C192.1 263.3 146.8 217.1 119.5 149.6L151.9 140.3ZM237.4 114.2H244L250.3 113L273.4 122.3C249.4 211.4 189.1 260 109.3 283.4C105.7 273.8 97.0001 258.5 90.1001 251C162.7 233.9 219.1 189.8 237.4 119.9V114.2ZM0.100098 154.7C26.5001 149.3 65.2001 140 101.8 130.7L106.3 163.7C73.0001 172.7 37.3001 182 9.4001 189.2L0.100098 154.7ZM4.0001 59.2998H103.6V92.8998H4.0001V59.2998ZM38.5001 2.2998H73.9001V244.4C73.9001 261.5 70.9001 270.5 60.7001 275.9C50.5001 281.3 36.1001 282.5 14.5001 282.5C13.6001 273.2 8.8001 258.8 4.6001 249.5C16.3001 249.8 28.9001 249.8 32.8001 249.8C37.0001 249.8 38.5001 248.3 38.5001 244.1V2.2998Z" fill="black"/>
    <path d="M349.3 0.799805L386.8 8.89981C376 36.4998 362.5 65.8998 351.1 85.0998L319.9 76.9998C330.7 56.5998 343 24.7998 349.3 0.799805ZM304 62.2998C336.4 61.3998 385 59.2998 431.5 57.1998L431.2 88.3998C387.1 91.6998 340.9 94.3998 306.7 96.4998L304 62.2998ZM321.7 110.6H417.1V140.3H355V283.7H321.7V110.6ZM400 110.6H435.7V247.7C435.7 263 432.7 272 422.5 277.4C412 282.8 398.5 283.4 380.2 283.4C378.4 273.8 373.3 260 368.8 251.3C379.3 251.9 391.3 251.9 395.2 251.6C398.8 251.6 400 250.7 400 246.8V110.6ZM337 155.9H420.1V182.6H337V155.9ZM337 200H420.1V226.7H337V200ZM459.1 3.49981H495.1V93.4998C495.1 104 496.9 105.5 508.3 105.5C513.1 105.5 534.7 105.5 541 105.5C550.9 105.5 552.7 101 553.9 74.5998C561.4 80.2998 576.1 85.6998 586 87.7998C582.1 126.8 572.5 137.6 544.6 137.6C537.1 137.6 510.1 137.6 503.2 137.6C467.8 137.6 459.1 127.4 459.1 94.0998V3.49981ZM549.1 21.1998L571.9 47.2998C545.2 60.1998 510.4 71.5998 480.7 79.6998C479.2 72.4998 474.4 61.6998 470.5 54.7998C498.4 46.0998 529.3 32.5998 549.1 21.1998ZM459.1 143.6H494.8V238.1C494.8 249.2 496.9 250.4 508.6 250.4C513.7 250.4 536.2 250.4 542.8 250.4C553.3 250.4 555.1 245 556.6 214.4C564.1 219.8 578.5 225.5 588.4 227.6C584.5 269.9 574.9 281.9 546.1 281.9C538.6 281.9 510.7 281.9 503.5 281.9C468.1 281.9 459.1 271.7 459.1 238.4V143.6ZM551.5 156.2L574.9 182.6C547.6 197.3 511.3 209.9 480.4 218.6C478.6 211.7 473.5 200.3 469.9 193.4C499 184.1 531.1 169.4 551.5 156.2ZM390.1 33.7998L420.7 22.3998C435.4 43.9998 451 72.4998 456.7 92.2998L424 105.5C418.9 86.2998 404.5 56.2998 390.1 33.7998Z" fill="black"/>
</svg>
