<svg width="543" height="282" viewBox="0 0 543 282" fill="none" xmlns="http://www.w3.org/2000/svg">
    <path d="M120 59.4001H273.6V83.4001H120V59.4001ZM107.4 96.3H283.8V121.8H107.4V96.3ZM102.3 208.2H287.1V234.6H102.3V208.2ZM137.7 170.7H252.3V194.1H137.7V170.7ZM113.7 22.2001H278.4V47.1001H113.7V22.2001ZM144.6 0.300049H177.9V107.7H144.6V0.300049ZM178.2 110.7H210.6V219.6H178.2V110.7ZM210.9 0.300049H244.5V107.4H210.9V0.300049ZM120 132.9H250.5V157.8H152.7V279.9H120V132.9ZM237.3 132.9H270.6V247.8C270.6 262.5 267.6 270.3 257.7 275.1C247.5 279.6 233.4 279.9 214.2 279.9C213 271.5 208.8 259.5 204.9 251.7C216 252.3 228.6 252 232.2 252C236.1 251.7 237.3 250.8 237.3 247.2V132.9ZM7.20005 62.4001H106.5V95.7001H7.20005V62.4001ZM43.8001 0.300049H76.5001V282H43.8001V0.300049ZM43.2001 85.2L63.3 92.1C54.6 139.5 37.5001 197.4 16.2 228.3C13.2 218.7 5.40005 204.9 0.300049 196.5C19.5 170.4 36.3 123.3 43.2001 85.2ZM75.0001 107.7C81.9001 116.4 106.8 155.7 111.9 164.7L93.3001 190.5C86.4001 172.2 68.4001 137.1 60.0001 122.4L75.0001 107.7Z" fill="white"/>
    <path d="M429 34.2H571.5V64.8001H429V34.2ZM389.7 90.0001H583.8V120H389.7V90.0001ZM424.8 3.30005L458.1 10.8001C447.9 41.7001 430.2 71.4 412.2 90.6001C405.3 85.2 390.3 77.1 381.9 73.2001C400.8 56.4 416.1 29.7 424.8 3.30005ZM470.1 0.300049H505.8V110.1H470.1V0.300049ZM380.1 117.3V227.7H345V150.6H309.9V117.3H380.1ZM380.1 212.1C392.1 231.9 414.9 240.6 446.1 241.8C481.2 243.3 549.3 242.4 589.8 239.1C585.9 247.5 579.9 264.9 578.4 275.7C542.1 277.5 481.5 278.1 445.5 276.6C408.6 275.1 383.7 266.4 364.2 243C351 254.7 337.5 266.1 321.3 279.3L303.6 241.8C317.1 233.4 333.3 222.9 347.1 212.1H380.1ZM310.5 28.8001L337.2 7.20005C355.2 19.8 377.1 38.7001 387.6 52.8001L358.8 76.5001C349.8 62.4001 328.2 42.3 310.5 28.8001ZM449.1 165V195.6H528.3V165H449.1ZM414 136.5H565.8V224.4H414V136.5Z" fill="white"/>
</svg>
